0
SECTION
2
HEADER
9
$INSUNITS
70
4
9
$ACADVER
1
AC1014
9
$HANDSEED
5
FFFF
0
ENDSEC
0
SECTION
2
TABLES
0
TABLE
2
VPORT
5
8
100
AcDbSymbolTable
0
ENDTAB
0
TABLE
2
LTYPE
5
5
100
AcDbSymbolTable
0
LTYPE
5
14
100
AcDbSymbolTableRecord
100
AcDbLinetypeTableRecord
2
BYBLOCK
70
0
0
LTYPE
5
15
100
AcDbSymbolTableRecord
100
AcDbLinetypeTableRecord
2
BYLAYER
70
0
0
ENDTAB
0
TABLE
2
LAYER
5
2
100
AcDbSymbolTable
70
2
0
LAYER
5
50
100
AcDbSymbolTableRecord
100
AcDbLayerTableRecord
2
0
70
0
6
CONTINUOUS
0
ENDTAB
0
TABLE
2
STYLE
5
3
100
AcDbSymbolTable
70
1
0
STYLE
5
11
100
AcDbSymbolTableRecord
100
AcDbTextStyleTableRecord
2
STANDARD
70
0
0
ENDTAB
0
TABLE
2
VIEW
5
6
100
AcDbSymbolTable
70
0
0
ENDTAB
0
TABLE
2
UCS
5
7
100
AcDbSymbolTable
70
0
0
ENDTAB
0
TABLE
2
APPID
5
9
100
AcDbSymbolTable
70
2
0
APPID
5
12
100
AcDbSymbolTableRecord
100
AcDbRegAppTableRecord
2
ACAD
70
0
0
ENDTAB
0
TABLE
2
DIMSTYLE
5
A
100
AcDbSymbolTable
70
1
0
ENDTAB
0
TABLE
2
BLOCK_RECORD
5
1
100
AcDbSymbolTable
70
1
0
BLOCK_RECORD
5
1F
100
AcDbSymbolTableRecord
100
AcDbBlockTableRecord
2
*MODEL_SPACE
0
BLOCK_RECORD
5
1B
100
AcDbSymbolTableRecord
100
AcDbBlockTableRecord
2
*PAPER_SPACE
0
ENDTAB
0
ENDSEC
0
SECTION
2
BLOCKS
0
BLOCK
5
20
100
AcDbEntity
100
AcDbBlockBegin
2
*MODEL_SPACE
0
ENDBLK
5
21
100
AcDbEntity
100
AcDbBlockEnd
0
BLOCK
5
1C
100
AcDbEntity
100
AcDbBlockBegin
2
*PAPER_SPACE
0
ENDBLK
5
1D
100
AcDbEntity
100
AcDbBlockEnd
0
ENDSEC
0
SECTION
2
ENTITIES
0
CIRCLE
5
100
100
AcDbEntity
8
0
100
AcDbCircle
10
60
20
156.00000000000003
30
0
40
10.000000000000009
210
0
220
-0
230
1
0
LWPOLYLINE
5
101
100
AcDbEntity
8
0
100
AcDbPolyline
90
52
70
1
43
0.0
10
120
20
126.00000000000001
10
105.9375
20
126
10
105.9375
20
129
10
87.5625
20
129.00000000000003
10
87.5625
20
126.00000000000001
10
69.1875
20
126.00000000000001
10
69.1875
20
129
10
50.8125
20
129.00000000000003
10
50.8125
20
126.00000000000001
10
32.4375
20
126.00000000000001
10
32.4375
20
129
10
14.0625
20
129
10
14.0625
20
126.00000000000001
10
0
20
126.00000000000001
10
0
20
140.0625
10
3.0000000000000071
20
140.0625
10
3.0000000000000071
20
158.43749999999997
10
0
20
158.43749999999997
10
0
20
176.8125
10
3.0000000000000071
20
176.8125
10
3.0000000000000071
20
195.1875
10
0
20
195.1875
10
0
20
213.5625
10
3.0000000000000071
20
213.5625
10
3.0000000000000071
20
231.9375
10
0
20
231.9375
10
0
20
246
10
14.0625
20
246
10
14.0625
20
243
10
32.4375
20
243
10
32.4375
20
246
10
50.8125
20
246
10
50.8125
20
243
10
69.1875
20
243
10
69.1875
20
246
10
87.5625
20
246
10
87.5625
20
243
10
105.9375
20
243
10
105.9375
20
246
10
120
20
246
10
120
20
231.9375
10
117
20
231.9375
10
117
20
213.5625
10
120
20
213.56250000000003
10
120
20
195.1875
10
117
20
195.1875
10
117
20
176.8125
10
120
20
176.8125
10
120
20
158.43749999999997
10
117
20
158.4375
10
117
20
140.0625
10
120
20
140.0625
0
LWPOLYLINE
5
102
100
AcDbEntity
8
0
100
AcDbPolyline
90
6
70
1
43
0.0
10
203.55868727921901
20
214.25454990909085
10
203.53345347281905
20
217.71855961678716
10
200.52091616379812
20
219.42871135325888
10
197.5336126611771
20
217.67485338203403
10
197.55884646757715
20
214.2108436743377
10
200.57138377659808
20
212.50069193786607
0
LWPOLYLINE
5
103
100
AcDbEntity
8
0
100
AcDbPolyline
90
4
70
1
43
0.0
10
197.02523380640008
20
218.53599029230372
10
199.2069927219072
20
219.8169097776844
42
0.037311309801239576
10
194.00101255795397
20
221.85007284092654
10
194.01269649737915
20
220.24614202877524
0
LWPOLYLINE
5
104
100
AcDbEntity
8
0
100
AcDbPolyline
90
5
70
1
43
0.0
10
193.01274062956043
20
220.2364414809262
10
192.9988565706638
20
222.14239708817462
42
0.0408451287130564
10
186.99035879162051
20
223.2870894106008
10
187.01289981791859
20
220.19273524617316
10
190.02543712693949
20
218.48258350970153
0
LWPOLYLINE
5
105
100
AcDbEntity
8
0
100
AcDbPolyline
90
5
70
1
43
0.0
10
186.01253730902098
20
220.28984826352854
10
185.99002247522697
20
223.38060681152243
42
0.0400651947500755
10
179.98987503563779
20
223.37899340136011
10
180.01269649737918
20
220.24614202877524
10
183.02523380640011
20
218.53599029230372
0
LWPOLYLINE
5
106
100
AcDbEntity
8
0
100
AcDbPolyline
90
5
70
1
43
0.0
10
179.01274062956045
20
220.2364414809262
10
178.99053291659897
20
223.28503954278608
42
0.040733709786789939
10
172.99870229830998
20
222.14172165630976
10
173.01289981791859
20
220.19273524617316
10
176.02543712693949
20
218.48258350970153
0
LWPOLYLINE
5
107
100
AcDbEntity
8
0
100
AcDbPolyline
90
6
70
1
43
0.0
10
168.53365679335863
20
217.66515283418499
10
165.52111948433773
20
219.37530457065662
10
162.53381598171677
20
217.62144659943192
10
162.55904978811674
20
214.15743689173564
10
165.57158709713761
20
212.44728515526401
10
168.55889059975854
20
214.20114312648872
0
LWPOLYLINE
5
108
100
AcDbEntity
8
0
100
AcDbPolyline
90
4
70
1
43
0.0
10
166.77989277519771
20
219.81062143196908
42
-0.037423625817641741
10
172.00116687925029
20
221.85074155414219
10
172.01253730902098
20
220.28984826352854
10
169.02523380640014
20
218.53599029230372
0
LWPOLYLINE
5
109
100
AcDbEntity
8
0
100
AcDbPolyline
90
6
70
1
43
0.0
10
162.53381598171677
20
157.62144659943189
10
162.55904978811674
20
154.15743689173564
10
165.57158709713761
20
152.44728515526396
10
168.55889059975854
20
154.20114312648866
10
168.53365679335863
20
157.66515283418497
10
165.52111948433773
20
159.3753045706566
0
LWPOLYLINE
5
110
100
AcDbEntity
8
0
100
AcDbPolyline
90
4
70
1
43
0.0
10
161.55151282362453
20
155.23943437053111
42
-0.036681427265749737
10
157.28658092792287
20
158.70402814289736
10
158.52091616379815
20
159.42871135325885
10
161.53345347281908
20
157.71855961678713
0
LWPOLYLINE
5
111
100
AcDbEntity
8
0
100
AcDbPolyline
90
5
70
1
43
0.0
10
156.54113463064184
20
159.42598179864046
42
-0.040690195313926474
10
152.58665537171163
20
164.06194018330331
10
154.97476619359995
20
165.46400970769633
10
157.98730350262088
20
163.75385797122487
10
158.01253730902098
20
160.28984826352854
0
LWPOLYLINE
5
112
100
AcDbEntity
8
0
100
AcDbPolyline
90
5
70
1
43
0.0
10
152.09772923552148
20
164.75618533316424
42
-0.04006573286036462
10
149.10506439607829
20
169.95682885443159
10
151.52111948433773
20
171.37530457065657
10
154.53365679335863
20
169.66515283418494
10
154.55889059975854
20
166.20114312648866
0
LWPOLYLINE
5
113
100
AcDbEntity
8
0
100
AcDbPolyline
90
5
70
1
43
0.0
10
148.68721900814671
20
170.87111832933036
42
-0.040859368661849978
10
146.68369432946096
20
176.65249004044543
10
147.97496951413959
20
177.41060292509417
10
150.98750682316049
20
175.70045118862254
10
151.01274062956045
20
172.2364414809262
0
LWPOLYLINE
5
114
100
AcDbEntity
8
0
100
AcDbPolyline
90
4
70
1
43
0.0
10
146.45182557039428
20
177.60470692214213
42
-0.035068718667971593
10
145.63721001465521
20
182.79501567694663
10
147.53345347281908
20
181.71855961678713
10
147.55868727921904
20
178.25454990909083
0
LWPOLYLINE
5
115
100
AcDbEntity
8
0
100
AcDbPolyline
90
6
70
1
43
0.0
10
145.5598461971166
20
183.88224571386363
42
-0.027395706327536719
10
145.55275960349496
20
187.98851368774805
10
147.97496951413959
20
189.4106029250942
10
150.98750682316049
20
187.70045118862257
10
151.01274062956045
20
184.23644148092623
10
148.02543712693952
20
182.48258350970156
0
LWPOLYLINE
5
116
100
AcDbEntity
8
0
100
AcDbPolyline
90
4
70
1
43
0.0
10
145.63021237237737
20
189.12233448983287
42
-0.035242303443753481
10
146.43912029898638
20
194.33978869564515
10
147.53345347281908
20
193.71855961678719
10
147.55868727921904
20
190.25454990909083
0
LWPOLYLINE
5
117
100
AcDbEntity
8
0
100
AcDbPolyline
90
5
70
1
43
0.0
10
146.66061111569101
20
195.2573654737717
42
-0.040764984905000481
10
148.64411602643906
20
201.03074304201954
10
150.98750682316049
20
199.70045118862257
10
151.01274062956045
20
196.23644148092623
10
148.02543712693952
20
194.48258350970153
0
LWPOLYLINE
5
118
100
AcDbEntity
8
0
100
AcDbPolyline
90
5
70
1
43
0.0
10
149.03239387208814
20
201.88872977739447
42
-0.040064239425548979
10
152.00123075614087
20
207.10275587135416
10
154.53365679335863
20
205.66515283418497
10
154.55889059975854
20
202.20114312648866
10
151.57158709713761
20
200.44728515526398
0
LWPOLYLINE
5
119
100
AcDbEntity
8
0
100
AcDbPolyline
90
5
70
1
43
0.0
10
152.57757851427118
20
207.92547082606629
42
-0.040798645999494711
10
156.54164527414076
20
212.5745266223239
10
157.98730350262088
20
211.75385797122487
10
158.01253730902098
20
208.28984826352854
10
155.02523380640011
20
206.53599029230375
0
LWPOLYLINE
5
120
100
AcDbEntity
8
0
100
AcDbPolyline
90
4
70
1
43
0.0
10
157.2429567402649
20
213.254810997623
42
-0.036992084868563153
10
161.54048806272692
20
216.75287543326698
10
161.55868727921901
20
214.25454990909083
10
158.57138377659811
20
212.50069193786607
0
LWPOLYLINE
5
121
100
AcDbEntity
8
0
100
AcDbPolyline
90
4
70
1
43
0.0
10
168.97476619359995
20
153.46400970769633
10
166.79300727809277
20
152.18309022231563
42
0.037311309801243316
10
171.99898744204606
20
150.14992715907346
10
171.98730350262088
20
151.75385797122487
0
LWPOLYLINE
5
122
100
AcDbEntity
8
0
100
AcDbPolyline
90
5
70
1
43
0.0
10
172.98766601151866
20
151.65674495386946
10
173.00077122987486
20
149.8577058835123
42
0.040845210975297953
10
179.00926946921047
20
148.71295037374739
10
178.98750682316049
20
151.70045118862254
10
175.97496951413959
20
153.41060292509417
0
LWPOLYLINE
5
123
100
AcDbEntity
8
0
100
AcDbPolyline
90
5
70
1
43
0.0
10
179.9874626909791
20
151.71015173647152
10
180.00997752477306
20
148.61939318847757
42
0.040065194750078817
10
186.01012496436229
20
148.62100659863989
10
185.98730350262088
20
151.75385797122487
10
182.97476619359995
20
153.46400970769633
0
LWPOLYLINE
5
124
100
AcDbEntity
8
0
100
AcDbPolyline
90
5
70
1
43
0.0
10
186.98766601151863
20
151.65674495386946
10
187.00909592477706
20
148.71492054633737
42
0.040733634094665482
10
193.00092699958552
20
149.85817576340452
10
192.98750682316046
20
151.70045118862254
10
189.97496951413956
20
153.41060292509417
0
LWPOLYLINE
5
125
100
AcDbEntity
8
0
100
AcDbPolyline
90
4
70
1
43
0.0
10
193.9874626909791
20
151.71015173647152
10
193.99883312074985
20
150.14925844585781
42
0.037423625817644163
10
199.22010722480235
20
152.18937856803109
10
196.97476619359992
20
153.46400970769633
0
LWPOLYLINE
5
126
100
AcDbEntity
8
0
100
AcDbPolyline
90
6
70
1
43
0.0
10
197.55884646757715
20
154.2108436743377
10
200.57138377659808
20
152.50069193786607
10
203.55868727921901
20
154.25454990909083
10
203.53345347281905
20
157.71855961678713
10
200.52091616379812
20
159.42871135325885
10
197.5336126611771
20
157.67485338203403
0
LWPOLYLINE
5
127
100
AcDbEntity
8
0
100
AcDbPolyline
90
4
70
1
43
0.0
10
204.53381598171677
20
157.62144659943189
10
204.55064716170969
20
155.31092039647501
42
0.035815273704110688
10
208.70973190547028
20
158.70055521903703
10
207.5211194843377
20
159.3753045706566
0
LWPOLYLINE
5
128
100
AcDbEntity
8
0
100
AcDbPolyline
90
5
70
1
43
0.0
10
208.01269649737918
20
160.24614202877524
10
209.45835472585935
20
159.42547337767621
42
0.040798645999495418
10
213.42242148572868
20
164.07452917393391
10
210.97476619359995
20
165.46400970769633
10
207.9874626909791
20
163.71015173647152
0
LWPOLYLINE
5
129
100
AcDbEntity
8
0
100
AcDbPolyline
90
5
70
1
43
0.0
10
211.55884646757715
20
166.21084367433775
10
213.96362104126655
20
164.84570558934109
42
0.040064381722968993
10
216.94113662743916
20
170.05480497336237
10
214.52091616379815
20
171.42871135325885
10
211.53361266117713
20
169.67485338203406
0
LWPOLYLINE
5
130
100
AcDbEntity
8
0
100
AcDbPolyline
90
5
70
1
43
0.0
10
215.01289981791859
20
172.1927352461731
10
217.31842968105073
20
170.8839362191483
42
0.040745770155277729
10
219.31555673133028
20
176.64958079583948
10
217.97496951413959
20
177.41060292509417
10
214.98766601151863
20
175.65674495386946
0
LWPOLYLINE
5
131
100
AcDbEntity
8
0
100
AcDbPolyline
90
4
70
1
43
0.0
10
218.55904978811674
20
178.15743689173564
10
219.54639061829573
20
177.59694503320699
42
0.034417338881713756
10
220.35362073477228
20
182.68986133178794
10
218.53381598171677
20
181.62144659943192
0
LWPOLYLINE
5
132
100
AcDbEntity
8
0
100
AcDbPolyline
90
6
70
1
43
0.0
10
218.02543712693949
20
182.48258350970156
10
220.44120372790394
20
183.90088985386865
42
0.027399514038992791
10
220.4462149917112
20
188.00773075748265
10
217.97496951413959
20
189.4106029250942
10
214.98766601151863
20
187.65674495386946
10
215.01289981791859
20
184.19273524617313
0
LWPOLYLINE
5
133
100
AcDbEntity
8
0
100
AcDbPolyline
90
4
70
1
43
0.0
10
218.55904978811674
20
190.15743689173564
10
220.36915651791858
20
189.12987877389918
42
0.034495027712730143
10
219.5839525746263
20
194.23798604135106
10
218.53381598171677
20
193.62144659943192
0
LWPOLYLINE
5
134
100
AcDbEntity
8
0
100
AcDbPolyline
90
5
70
1
43
0.0
10
218.02543712693949
20
194.48258350970153
10
219.34013238269966
20
195.25444641282579
42
0.040880161568308697
10
217.3501756289844
20
201.04378390757873
10
214.98766601151863
20
199.65674495386946
10
215.01289981791859
20
196.19273524617313
0
LWPOLYLINE
5
135
100
AcDbEntity
8
0
100
AcDbPolyline
90
5
70
1
43
0.0
10
214.57138377659811
20
200.50069193786612
10
216.96070605388999
20
201.90347271262723
42
0.040067514605060923
10
213.98932998303854
20
207.11661495605648
10
211.53361266117713
20
205.67485338203403
10
211.55884646757715
20
202.21084367433772
0
LWPOLYLINE
5
136
100
AcDbEntity
8
0
100
AcDbPolyline
90
5
70
1
43
0.0
10
211.02523380640011
20
206.53599029230375
10
213.4133446282884
20
207.93805981669666
42
0.040690195313923955
10
209.45886536935808
20
212.57401820135948
10
207.9874626909791
20
211.71015173647152
10
208.01269649737918
20
208.24614202877524
0
LWPOLYLINE
5
137
100
AcDbEntity
8
0
100
AcDbPolyline
90
52
70
1
43
0.0
10
240
20
231.9375
10
243
20
231.9375
10
243
20
213.56250000000003
10
240
20
213.56250000000003
10
240
20
195.1875
10
243
20
195.18749999999997
10
243
20
176.8125
10
240
20
176.8125
10
240
20
158.4375
10
243
20
158.43750000000003
10
243
20
140.0625
10
240
20
140.0625
10
240
20
126.00000000000001
10
228.9375
20
126
10
228.9375
20
129
10
210.5625
20
129.00000000000003
10
210.5625
20
126.00000000000001
10
192.1875
20
126
10
192.1875
20
129
10
173.81249999999997
20
129.00000000000003
10
173.81249999999997
20
126.00000000000001
10
155.4375
20
126
10
155.4375
20
129
10
137.0625
20
129.00000000000003
10
137.0625
20
126.00000000000001
10
126.00000000000001
20
126.00000000000001
10
126.00000000000001
20
140.0625
10
123
20
140.0625
10
123
20
158.4375
10
126.00000000000001
20
158.43749999999997
10
126.00000000000001
20
176.8125
10
123
20
176.81250000000003
10
123
20
195.1875
10
126.00000000000001
20
195.18750000000006
10
126.00000000000001
20
213.56250000000003
10
123
20
213.56250000000003
10
123
20
231.9375
10
126.00000000000001
20
231.9375
10
126.00000000000001
20
246
10
137.0625
20
246
10
137.0625
20
243
10
155.4375
20
243
10
155.4375
20
246
10
173.81249999999997
20
246
10
173.81249999999997
20
243
10
192.1875
20
243
10
192.18749999999997
20
246
10
210.5625
20
246
10
210.5625
20
243
10
228.9375
20
243
10
228.9375
20
246
10
240
20
246
0
LWPOLYLINE
5
138
100
AcDbEntity
8
0
100
AcDbPolyline
90
6
70
1
43
0.0
10
214.01253730902098
20
172.28984826352854
10
213.98730350262088
20
175.75385797122487
10
210.97476619359995
20
177.46400970769633
10
207.9874626909791
20
175.71015173647154
10
208.01269649737918
20
172.24614202877524
10
211.02523380640011
20
170.53599029230378
0
LWPOLYLINE
5
139
100
AcDbEntity
8
0
100
AcDbPolyline
90
6
70
1
43
0.0
10
148.55904978811674
20
178.15743689173564
10
151.57158709713761
20
176.44728515526398
10
154.55889059975854
20
178.20114312648869
10
154.53365679335863
20
181.66515283418499
10
151.52111948433773
20
183.37530457065662
10
148.53381598171677
20
181.62144659943192
0
LWPOLYLINE
5
140
100
AcDbEntity
8
0
100
AcDbPolyline
90
6
70
1
43
0.0
10
158.01253730902098
20
184.28984826352857
10
157.98730350262088
20
187.75385797122487
10
154.97476619359995
20
189.46400970769633
10
151.98746269097913
20
187.71015173647154
10
152.01269649737918
20
184.24614202877524
10
155.02523380640011
20
182.53599029230375
0
LWPOLYLINE
5
141
100
AcDbEntity
8
0
100
AcDbPolyline
90
6
70
1
43
0.0
10
161.53345347281908
20
181.71855961678716
10
158.52091616379815
20
183.42871135325885
10
155.53361266117713
20
181.67485338203406
10
155.55884646757715
20
178.21084367433772
10
158.57138377659811
20
176.50069193786609
10
161.55868727921901
20
178.25454990909083
0
LWPOLYLINE
5
142
100
AcDbEntity
8
0
100
AcDbPolyline
90
6
70
1
43
0.0
10
161.97496951413962
20
189.4106029250942
10
158.98766601151866
20
187.65674495386946
10
159.01289981791859
20
184.19273524617313
10
162.02543712693952
20
182.48258350970156
10
165.01274062956045
20
184.23644148092623
10
164.98750682316052
20
187.70045118862257
0
LWPOLYLINE
5
143
100
AcDbEntity
8
0
100
AcDbPolyline
90
6
70
1
43
0.0
10
162.55904978811674
20
178.15743689173564
10
165.57158709713761
20
176.44728515526398
10
168.55889059975854
20
178.20114312648869
10
168.53365679335863
20
181.66515283418499
10
165.52111948433773
20
183.37530457065662
10
162.53381598171677
20
181.62144659943192
0
LWPOLYLINE
5
144
100
AcDbEntity
8
0
100
AcDbPolyline
90
6
70
1
43
0.0
10
172.01253730902098
20
184.28984826352857
10
171.98730350262088
20
187.75385797122487
10
168.97476619359995
20
189.46400970769633
10
165.98746269097913
20
187.71015173647154
10
166.01269649737918
20
184.24614202877524
10
169.02523380640014
20
182.53599029230375
0
LWPOLYLINE
5
145
100
AcDbEntity
8
0
100
AcDbPolyline
90
6
70
1
43
0.0
10
175.53345347281908
20
181.71855961678716
10
172.52091616379815
20
183.42871135325885
10
169.53361266117713
20
181.67485338203406
10
169.55884646757715
20
178.21084367433772
10
172.57138377659811
20
176.50069193786609
10
175.55868727921904
20
178.25454990909083
0
LWPOLYLINE
5
146
100
AcDbEntity
8
0
100
AcDbPolyline
90
6
70
1
43
0.0
10
190.55904978811671
20
178.15743689173564
10
193.57158709713758
20
176.44728515526398
10
196.55889059975851
20
178.20114312648869
10
196.5336567933586
20
181.66515283418499
10
193.5211194843377
20
183.37530457065662
10
190.53381598171677
20
181.62144659943192
0
LWPOLYLINE
5
147
100
AcDbEntity
8
0
100
AcDbPolyline
90
6
70
1
43
0.0
10
203.53345347281905
20
181.71855961678716
10
200.52091616379812
20
183.42871135325885
10
197.5336126611771
20
181.67485338203406
10
197.55884646757715
20
178.21084367433772
10
200.57138377659808
20
176.50069193786609
10
203.55868727921901
20
178.25454990909083
0
LWPOLYLINE
5
148
100
AcDbEntity
8
0
100
AcDbPolyline
90
6
70
1
43
0.0
10
189.97496951413956
20
165.41060292509417
10
186.98766601151863
20
163.65674495386943
10
187.01289981791859
20
160.19273524617313
10
190.02543712693949
20
158.48258350970153
10
193.01274062956043
20
160.2364414809262
10
192.98750682316046
20
163.70045118862254
0
LWPOLYLINE
5
149
100
AcDbEntity
8
0
100
AcDbPolyline
90
6
70
1
43
0.0
10
190.55904978811671
20
154.15743689173564
10
193.57158709713758
20
152.44728515526396
10
196.55889059975851
20
154.20114312648866
10
196.5336567933586
20
157.66515283418497
10
193.5211194843377
20
159.3753045706566
10
190.53381598171677
20
157.62144659943189
0
LWPOLYLINE
5
150
100
AcDbEntity
8
0
100
AcDbPolyline
90
6
70
1
43
0.0
10
200.01253730902096
20
160.28984826352854
10
199.98730350262088
20
163.75385797122487
10
196.97476619359992
20
165.46400970769633
10
193.9874626909791
20
163.71015173647152
10
194.01269649737915
20
160.24614202877524
10
197.02523380640008
20
158.53599029230372
0
LWPOLYLINE
5
151
100
AcDbEntity
8
0
100
AcDbPolyline
90
6
70
1
43
0.0
10
203.97496951413959
20
165.41060292509417
10
200.98766601151866
20
163.65674495386943
10
201.01289981791862
20
160.19273524617313
10
204.02543712693952
20
158.48258350970153
10
207.01274062956045
20
160.2364414809262
10
206.98750682316049
20
163.70045118862254
0
LWPOLYLINE
5
152
100
AcDbEntity
8
0
100
AcDbPolyline
90
6
70
1
43
0.0
10
158.01253730902098
20
172.28984826352854
10
157.98730350262088
20
175.75385797122487
10
154.97476619359995
20
177.46400970769633
10
151.98746269097913
20
175.71015173647154
10
152.01269649737918
20
172.24614202877524
10
155.02523380640011
20
170.53599029230378
0
LWPOLYLINE
5
153
100
AcDbEntity
8
0
100
AcDbPolyline
90
6
70
1
43
0.0
10
161.53345347281908
20
169.71855961678713
10
158.52091616379815
20
171.42871135325885
10
155.53361266117713
20
169.67485338203406
10
155.55884646757715
20
166.21084367433775
10
158.57138377659811
20
164.50069193786612
10
161.55868727921901
20
166.2545499090908
0
LWPOLYLINE
5
154
100
AcDbEntity
8
0
100
AcDbPolyline
90
6
70
1
43
0.0
10
161.97496951413962
20
177.41060292509417
10
158.98766601151866
20
175.65674495386943
10
159.01289981791859
20
172.1927352461731
10
162.02543712693952
20
170.48258350970156
10
165.01274062956045
20
172.2364414809262
10
164.98750682316052
20
175.70045118862254
0
LWPOLYLINE
5
155
100
AcDbEntity
8
0
100
AcDbPolyline
90
6
70
1
43
0.0
10
162.55904978811674
20
166.15743689173567
10
165.57158709713761
20
164.44728515526401
10
168.55889059975854
20
166.20114312648866
10
168.53365679335863
20
169.66515283418494
10
165.52111948433773
20
171.37530457065662
10
162.53381598171677
20
169.62144659943189
0
LWPOLYLINE
5
156
100
AcDbEntity
8
0
100
AcDbPolyline
90
6
70
1
43
0.0
10
172.01253730902098
20
172.28984826352854
10
171.98730350262088
20
175.75385797122487
10
168.97476619359995
20
177.46400970769633
10
165.98746269097913
20
175.71015173647154
10
166.01269649737918
20
172.24614202877524
10
169.02523380640014
20
170.53599029230378
0
LWPOLYLINE
5
157
100
AcDbEntity
8
0
100
AcDbPolyline
90
6
70
1
43
0.0
10
175.53345347281908
20
169.71855961678713
10
172.52091616379815
20
171.42871135325885
10
169.53361266117713
20
169.67485338203406
10
169.55884646757715
20
166.21084367433775
10
172.57138377659811
20
164.50069193786612
10
175.55868727921904
20
166.2545499090908
0
LWPOLYLINE
5
158
100
AcDbEntity
8
0
100
AcDbPolyline
90
6
70
1
43
0.0
10
175.97496951413959
20
177.41060292509417
10
172.98766601151866
20
175.65674495386943
10
173.01289981791859
20
172.1927352461731
10
176.02543712693949
20
170.48258350970156
10
179.01274062956045
20
172.2364414809262
10
178.98750682316049
20
175.70045118862254
0
LWPOLYLINE
5
159
100
AcDbEntity
8
0
100
AcDbPolyline
90
6
70
1
43
0.0
10
176.55904978811674
20
166.15743689173567
10
179.57158709713758
20
164.44728515526401
10
182.55889059975854
20
166.20114312648866
10
182.5336567933586
20
169.66515283418494
10
179.5211194843377
20
171.37530457065662
10
176.53381598171677
20
169.62144659943189
0
LWPOLYLINE
5
160
100
AcDbEntity
8
0
100
AcDbPolyline
90
6
70
1
43
0.0
10
186.01253730902098
20
172.28984826352854
10
185.98730350262088
20
175.75385797122487
10
182.97476619359995
20
177.46400970769633
10
179.9874626909791
20
175.71015173647154
10
180.01269649737918
20
172.24614202877524
10
183.02523380640011
20
170.53599029230378
0
LWPOLYLINE
5
161
100
AcDbEntity
8
0
100
AcDbPolyline
90
6
70
1
43
0.0
10
179.01274062956045
20
184.23644148092623
10
178.98750682316049
20
187.70045118862257
10
175.97496951413959
20
189.4106029250942
10
172.98766601151866
20
187.65674495386946
10
173.01289981791859
20
184.19273524617313
10
176.02543712693949
20
182.48258350970156
0
LWPOLYLINE
5
162
100
AcDbEntity
8
0
100
AcDbPolyline
90
6
70
1
43
0.0
10
182.5336567933586
20
181.66515283418499
10
179.5211194843377
20
183.37530457065662
10
176.53381598171677
20
181.62144659943192
10
176.55904978811674
20
178.15743689173564
10
179.57158709713758
20
176.44728515526398
10
182.55889059975854
20
178.20114312648869
0
LWPOLYLINE
5
163
100
AcDbEntity
8
0
100
AcDbPolyline
90
6
70
1
43
0.0
10
189.53345347281908
20
181.71855961678716
10
186.52091616379812
20
183.42871135325885
10
183.53361266117713
20
181.67485338203406
10
183.55884646757715
20
178.21084367433772
10
186.57138377659808
20
176.50069193786609
10
189.55868727921904
20
178.25454990909083
0
LWPOLYLINE
5
164
100
AcDbEntity
8
0
100
AcDbPolyline
90
6
70
1
43
0.0
10
161.97496951413962
20
165.41060292509417
10
158.98766601151866
20
163.65674495386943
10
159.01289981791859
20
160.19273524617313
10
162.02543712693952
20
158.48258350970153
10
165.01274062956045
20
160.2364414809262
10
164.98750682316052
20
163.70045118862254
0
LWPOLYLINE
5
165
100
AcDbEntity
8
0
100
AcDbPolyline
90
6
70
1
43
0.0
10
172.01253730902098
20
160.28984826352854
10
171.98730350262088
20
163.75385797122487
10
168.97476619359995
20
165.46400970769633
10
165.98746269097913
20
163.71015173647152
10
166.01269649737918
20
160.24614202877524
10
169.02523380640014
20
158.53599029230372
0
LWPOLYLINE
5
166
100
AcDbEntity
8
0
100
AcDbPolyline
90
6
70
1
43
0.0
10
175.53345347281908
20
157.71855961678713
10
172.52091616379815
20
159.42871135325885
10
169.53361266117713
20
157.67485338203403
10
169.55884646757715
20
154.2108436743377
10
172.57138377659811
20
152.50069193786607
10
175.55868727921904
20
154.25454990909083
0
LWPOLYLINE
5
167
100
AcDbEntity
8
0
100
AcDbPolyline
90
6
70
1
43
0.0
10
175.97496951413959
20
165.41060292509417
10
172.98766601151866
20
163.65674495386943
10
173.01289981791859
20
160.19273524617313
10
176.02543712693949
20
158.48258350970153
10
179.01274062956045
20
160.2364414809262
10
178.98750682316049
20
163.70045118862254
0
LWPOLYLINE
5
168
100
AcDbEntity
8
0
100
AcDbPolyline
90
6
70
1
43
0.0
10
176.55904978811674
20
154.15743689173564
10
179.57158709713758
20
152.44728515526396
10
182.55889059975854
20
154.20114312648866
10
182.5336567933586
20
157.66515283418497
10
179.5211194843377
20
159.3753045706566
10
176.53381598171677
20
157.62144659943189
0
LWPOLYLINE
5
169
100
AcDbEntity
8
0
100
AcDbPolyline
90
6
70
1
43
0.0
10
186.01253730902098
20
160.28984826352854
10
185.98730350262088
20
163.75385797122487
10
182.97476619359995
20
165.46400970769633
10
179.9874626909791
20
163.71015173647152
10
180.01269649737918
20
160.24614202877524
10
183.02523380640011
20
158.53599029230372
0
LWPOLYLINE
5
170
100
AcDbEntity
8
0
100
AcDbPolyline
90
6
70
1
43
0.0
10
189.53345347281908
20
157.71855961678713
10
186.52091616379812
20
159.42871135325885
10
183.53361266117713
20
157.67485338203403
10
183.55884646757715
20
154.2108436743377
10
186.57138377659808
20
152.50069193786607
10
189.55868727921904
20
154.25454990909083
0
LWPOLYLINE
5
171
100
AcDbEntity
8
0
100
AcDbPolyline
90
6
70
1
43
0.0
10
179.9874626909791
20
187.71015173647154
10
180.01269649737918
20
184.24614202877524
10
183.02523380640011
20
182.53599029230375
10
186.01253730902098
20
184.28984826352857
10
185.98730350262088
20
187.75385797122487
10
182.97476619359995
20
189.46400970769633
0
LWPOLYLINE
5
172
100
AcDbEntity
8
0
100
AcDbPolyline
90
6
70
1
43
0.0
10
189.97496951413956
20
189.4106029250942
10
186.98766601151863
20
187.65674495386946
10
187.01289981791859
20
184.19273524617313
10
190.02543712693949
20
182.48258350970156
10
193.01274062956043
20
184.23644148092623
10
192.98750682316046
20
187.70045118862257
0
LWPOLYLINE
5
173
100
AcDbEntity
8
0
100
AcDbPolyline
90
6
70
1
43
0.0
10
200.01253730902096
20
184.28984826352857
10
199.98730350262088
20
187.75385797122487
10
196.97476619359992
20
189.46400970769633
10
193.9874626909791
20
187.71015173647154
10
194.01269649737915
20
184.24614202877524
10
197.02523380640008
20
182.53599029230375
0
LWPOLYLINE
5
174
100
AcDbEntity
8
0
100
AcDbPolyline
90
6
70
1
43
0.0
10
203.97496951413959
20
189.4106029250942
10
200.98766601151866
20
187.65674495386946
10
201.01289981791862
20
184.19273524617313
10
204.02543712693952
20
182.48258350970156
10
207.01274062956045
20
184.23644148092623
10
206.98750682316049
20
187.70045118862257
0
LWPOLYLINE
5
175
100
AcDbEntity
8
0
100
AcDbPolyline
90
6
70
1
43
0.0
10
214.01253730902098
20
184.28984826352857
10
213.98730350262088
20
187.75385797122487
10
210.97476619359995
20
189.46400970769633
10
207.9874626909791
20
187.71015173647154
10
208.01269649737918
20
184.24614202877524
10
211.02523380640011
20
182.53599029230375
0
LWPOLYLINE
5
176
100
AcDbEntity
8
0
100
AcDbPolyline
90
6
70
1
43
0.0
10
204.55904978811674
20
166.15743689173567
10
207.57158709713761
20
164.44728515526401
10
210.55889059975854
20
166.20114312648866
10
210.5336567933586
20
169.66515283418494
10
207.5211194843377
20
171.37530457065662
10
204.53381598171677
20
169.62144659943189
0
LWPOLYLINE
5
177
100
AcDbEntity
8
0
100
AcDbPolyline
90
6
70
1
43
0.0
10
203.97496951413959
20
177.41060292509417
10
200.98766601151866
20
175.65674495386943
10
201.01289981791862
20
172.1927352461731
10
204.02543712693952
20
170.48258350970156
10
207.01274062956045
20
172.2364414809262
10
206.98750682316049
20
175.70045118862254
0
LWPOLYLINE
5
178
100
AcDbEntity
8
0
100
AcDbPolyline
90
6
70
1
43
0.0
10
203.53345347281905
20
169.71855961678713
10
200.52091616379812
20
171.42871135325885
10
197.5336126611771
20
169.67485338203406
10
197.55884646757715
20
166.21084367433775
10
200.57138377659808
20
164.50069193786612
10
203.55868727921901
20
166.2545499090908
0
LWPOLYLINE
5
179
100
AcDbEntity
8
0
100
AcDbPolyline
90
6
70
1
43
0.0
10
200.01253730902096
20
172.28984826352854
10
199.98730350262088
20
175.75385797122487
10
196.97476619359992
20
177.46400970769633
10
193.9874626909791
20
175.71015173647154
10
194.01269649737915
20
172.24614202877524
10
197.02523380640008
20
170.53599029230378
0
LWPOLYLINE
5
180
100
AcDbEntity
8
0
100
AcDbPolyline
90
6
70
1
43
0.0
10
190.55904978811671
20
166.15743689173567
10
193.57158709713758
20
164.44728515526401
10
196.55889059975851
20
166.20114312648866
10
196.5336567933586
20
169.66515283418494
10
193.5211194843377
20
171.37530457065662
10
190.53381598171677
20
169.62144659943189
0
LWPOLYLINE
5
181
100
AcDbEntity
8
0
100
AcDbPolyline
90
6
70
1
43
0.0
10
189.97496951413956
20
177.41060292509417
10
186.98766601151863
20
175.65674495386943
10
187.01289981791859
20
172.1927352461731
10
190.02543712693949
20
170.48258350970156
10
193.01274062956043
20
172.2364414809262
10
192.98750682316046
20
175.70045118862254
0
LWPOLYLINE
5
182
100
AcDbEntity
8
0
100
AcDbPolyline
90
6
70
1
43
0.0
10
189.53345347281908
20
169.71855961678713
10
186.52091616379812
20
171.42871135325885
10
183.53361266117713
20
169.67485338203406
10
183.55884646757715
20
166.21084367433775
10
186.57138377659808
20
164.50069193786612
10
189.55868727921904
20
166.2545499090908
0
LWPOLYLINE
5
183
100
AcDbEntity
8
0
100
AcDbPolyline
90
6
70
1
43
0.0
10
204.55904978811674
20
202.15743689173564
10
207.57158709713761
20
200.44728515526398
10
210.55889059975854
20
202.20114312648866
10
210.5336567933586
20
205.66515283418497
10
207.5211194843377
20
207.3753045706566
10
204.53381598171677
20
205.62144659943189
0
LWPOLYLINE
5
184
100
AcDbEntity
8
0
100
AcDbPolyline
90
6
70
1
43
0.0
10
203.97496951413959
20
213.41060292509417
10
200.98766601151866
20
211.65674495386946
10
201.01289981791862
20
208.19273524617313
10
204.02543712693952
20
206.48258350970153
10
207.01274062956045
20
208.23644148092623
10
206.98750682316049
20
211.70045118862254
0
LWPOLYLINE
5
185
100
AcDbEntity
8
0
100
AcDbPolyline
90
6
70
1
43
0.0
10
203.53345347281905
20
205.71855961678716
10
200.52091616379812
20
207.42871135325885
10
197.5336126611771
20
205.67485338203403
10
197.55884646757715
20
202.21084367433772
10
200.57138377659808
20
200.50069193786609
10
203.55868727921901
20
202.25454990909083
0
LWPOLYLINE
5
186
100
AcDbEntity
8
0
100
AcDbPolyline
90
6
70
1
43
0.0
10
200.01253730902096
20
208.28984826352854
10
199.98730350262088
20
211.75385797122487
10
196.97476619359992
20
213.46400970769633
10
193.9874626909791
20
211.71015173647152
10
194.01269649737915
20
208.24614202877524
10
197.02523380640008
20
206.53599029230375
0
LWPOLYLINE
5
187
100
AcDbEntity
8
0
100
AcDbPolyline
90
6
70
1
43
0.0
10
190.55904978811671
20
202.15743689173564
10
193.57158709713758
20
200.44728515526398
10
196.55889059975851
20
202.20114312648866
10
196.5336567933586
20
205.66515283418497
10
193.5211194843377
20
207.3753045706566
10
190.53381598171677
20
205.62144659943189
0
LWPOLYLINE
5
188
100
AcDbEntity
8
0
100
AcDbPolyline
90
6
70
1
43
0.0
10
190.55904978811671
20
214.15743689173564
10
193.57158709713758
20
212.44728515526396
10
196.55889059975851
20
214.20114312648872
10
196.5336567933586
20
217.66515283418499
10
193.5211194843377
20
219.3753045706566
10
190.53381598171677
20
217.62144659943192
0
LWPOLYLINE
5
189
100
AcDbEntity
8
0
100
AcDbPolyline
90
6
70
1
43
0.0
10
189.97496951413956
20
213.41060292509417
10
186.98766601151863
20
211.65674495386946
10
187.01289981791859
20
208.19273524617313
10
190.02543712693949
20
206.48258350970153
10
193.01274062956043
20
208.23644148092623
10
192.98750682316046
20
211.70045118862254
0
LWPOLYLINE
5
190
100
AcDbEntity
8
0
100
AcDbPolyline
90
6
70
1
43
0.0
10
189.53345347281908
20
217.71855961678716
10
186.52091616379812
20
219.42871135325888
10
183.53361266117713
20
217.67485338203403
10
183.55884646757715
20
214.2108436743377
10
186.57138377659808
20
212.50069193786607
10
189.55868727921904
20
214.25454990909085
0
LWPOLYLINE
5
191
100
AcDbEntity
8
0
100
AcDbPolyline
90
6
70
1
43
0.0
10
189.53345347281908
20
205.71855961678716
10
186.52091616379812
20
207.42871135325885
10
183.53361266117713
20
205.67485338203403
10
183.55884646757715
20
202.21084367433772
10
186.57138377659808
20
200.50069193786609
10
189.55868727921904
20
202.25454990909083
0
LWPOLYLINE
5
192
100
AcDbEntity
8
0
100
AcDbPolyline
90
6
70
1
43
0.0
10
176.55904978811674
20
214.15743689173564
10
179.57158709713758
20
212.44728515526396
10
182.55889059975854
20
214.20114312648872
10
182.5336567933586
20
217.66515283418499
10
179.5211194843377
20
219.3753045706566
10
176.53381598171677
20
217.62144659943192
0
LWPOLYLINE
5
193
100
AcDbEntity
8
0
100
AcDbPolyline
90
6
70
1
43
0.0
10
186.01253730902098
20
208.28984826352854
10
185.98730350262088
20
211.75385797122487
10
182.97476619359995
20
213.46400970769633
10
179.9874626909791
20
211.71015173647152
10
180.01269649737918
20
208.24614202877524
10
183.02523380640011
20
206.53599029230375
0
LWPOLYLINE
5
194
100
AcDbEntity
8
0
100
AcDbPolyline
90
6
70
1
43
0.0
10
175.53345347281908
20
217.71855961678716
10
172.52091616379815
20
219.42871135325888
10
169.53361266117713
20
217.67485338203403
10
169.55884646757715
20
214.2108436743377
10
172.57138377659811
20
212.50069193786607
10
175.55868727921904
20
214.25454990909085
0
LWPOLYLINE
5
195
100
AcDbEntity
8
0
100
AcDbPolyline
90
6
70
1
43
0.0
10
176.55904978811674
20
202.15743689173564
10
179.57158709713758
20
200.44728515526398
10
182.55889059975854
20
202.20114312648866
10
182.5336567933586
20
205.66515283418497
10
179.5211194843377
20
207.3753045706566
10
176.53381598171677
20
205.62144659943189
0
LWPOLYLINE
5
196
100
AcDbEntity
8
0
100
AcDbPolyline
90
6
70
1
43
0.0
10
217.53345347281908
20
193.71855961678716
10
214.52091616379815
20
195.42871135325885
10
211.53361266117713
20
193.67485338203406
10
211.55884646757715
20
190.21084367433772
10
214.57138377659811
20
188.50069193786609
10
217.55868727921904
20
190.25454990909083
0
LWPOLYLINE
5
197
100
AcDbEntity
8
0
100
AcDbPolyline
90
6
70
1
43
0.0
10
175.97496951413959
20
213.41060292509417
10
172.98766601151866
20
211.65674495386946
10
173.01289981791859
20
208.19273524617313
10
176.02543712693949
20
206.48258350970153
10
179.01274062956045
20
208.23644148092623
10
178.98750682316049
20
211.70045118862254
0
LWPOLYLINE
5
198
100
AcDbEntity
8
0
100
AcDbPolyline
90
6
70
1
43
0.0
10
214.01253730902098
20
196.28984826352854
10
213.98730350262088
20
199.75385797122487
10
210.97476619359995
20
201.46400970769633
10
207.9874626909791
20
199.71015173647152
10
208.01269649737918
20
196.24614202877524
10
211.02523380640011
20
194.53599029230375
0
LWPOLYLINE
5
199
100
AcDbEntity
8
0
100
AcDbPolyline
90
6
70
1
43
0.0
10
175.53345347281908
20
205.71855961678716
10
172.52091616379815
20
207.42871135325885
10
169.53361266117713
20
205.67485338203403
10
169.55884646757715
20
202.21084367433772
10
172.57138377659811
20
200.50069193786609
10
175.55868727921904
20
202.25454990909083
0
LWPOLYLINE
5
200
100
AcDbEntity
8
0
100
AcDbPolyline
90
6
70
1
43
0.0
10
204.55904978811674
20
190.15743689173564
10
207.57158709713761
20
188.44728515526398
10
210.55889059975854
20
190.20114312648869
10
210.5336567933586
20
193.66515283418497
10
207.5211194843377
20
195.3753045706566
10
204.53381598171677
20
193.62144659943192
0
LWPOLYLINE
5
201
100
AcDbEntity
8
0
100
AcDbPolyline
90
6
70
1
43
0.0
10
172.01253730902098
20
208.28984826352854
10
171.98730350262088
20
211.75385797122487
10
168.97476619359995
20
213.46400970769633
10
165.98746269097913
20
211.71015173647152
10
166.01269649737918
20
208.24614202877524
10
169.02523380640014
20
206.53599029230375
0
LWPOLYLINE
5
202
100
AcDbEntity
8
0
100
AcDbPolyline
90
6
70
1
43
0.0
10
203.97496951413959
20
201.4106029250942
10
200.98766601151866
20
199.65674495386946
10
201.01289981791862
20
196.19273524617313
10
204.02543712693952
20
194.48258350970153
10
207.01274062956045
20
196.23644148092623
10
206.98750682316049
20
199.70045118862257
0
LWPOLYLINE
5
203
100
AcDbEntity
8
0
100
AcDbPolyline
90
6
70
1
43
0.0
10
162.55904978811674
20
202.15743689173564
10
165.57158709713761
20
200.44728515526398
10
168.55889059975854
20
202.20114312648866
10
168.53365679335863
20
205.66515283418497
10
165.52111948433773
20
207.3753045706566
10
162.53381598171677
20
205.62144659943189
0
LWPOLYLINE
5
204
100
AcDbEntity
8
0
100
AcDbPolyline
90
6
70
1
43
0.0
10
203.53345347281905
20
193.71855961678716
10
200.52091616379812
20
195.42871135325885
10
197.5336126611771
20
193.67485338203406
10
197.55884646757715
20
190.21084367433772
10
200.57138377659808
20
188.50069193786609
10
203.55868727921901
20
190.25454990909083
0
LWPOLYLINE
5
205
100
AcDbEntity
8
0
100
AcDbPolyline
90
6
70
1
43
0.0
10
161.97496951413962
20
213.41060292509417
10
158.98766601151866
20
211.65674495386946
10
159.01289981791859
20
208.19273524617313
10
162.02543712693952
20
206.48258350970153
10
165.01274062956045
20
208.23644148092623
10
164.98750682316052
20
211.70045118862254
0
LWPOLYLINE
5
206
100
AcDbEntity
8
0
100
AcDbPolyline
90
6
70
1
43
0.0
10
200.01253730902096
20
196.28984826352854
10
199.98730350262088
20
199.75385797122487
10
196.97476619359992
20
201.46400970769633
10
193.9874626909791
20
199.71015173647152
10
194.01269649737915
20
196.24614202877524
10
197.02523380640008
20
194.53599029230375
0
LWPOLYLINE
5
207
100
AcDbEntity
8
0
100
AcDbPolyline
90
6
70
1
43
0.0
10
161.53345347281908
20
205.71855961678716
10
158.52091616379815
20
207.42871135325885
10
155.53361266117713
20
205.67485338203403
10
155.55884646757715
20
202.21084367433772
10
158.57138377659811
20
200.50069193786609
10
161.55868727921901
20
202.25454990909083
0
LWPOLYLINE
5
208
100
AcDbEntity
8
0
100
AcDbPolyline
90
6
70
1
43
0.0
10
190.55904978811671
20
190.15743689173564
10
193.57158709713758
20
188.44728515526398
10
196.55889059975851
20
190.20114312648869
10
196.5336567933586
20
193.66515283418497
10
193.5211194843377
20
195.3753045706566
10
190.53381598171677
20
193.62144659943192
0
LWPOLYLINE
5
209
100
AcDbEntity
8
0
100
AcDbPolyline
90
6
70
1
43
0.0
10
189.97496951413956
20
201.4106029250942
10
186.98766601151863
20
199.65674495386946
10
187.01289981791859
20
196.19273524617313
10
190.02543712693949
20
194.48258350970153
10
193.01274062956043
20
196.23644148092623
10
192.98750682316046
20
199.70045118862257
0
LWPOLYLINE
5
210
100
AcDbEntity
8
0
100
AcDbPolyline
90
6
70
1
43
0.0
10
189.53345347281908
20
193.71855961678716
10
186.52091616379812
20
195.42871135325885
10
183.53361266117713
20
193.67485338203406
10
183.55884646757715
20
190.21084367433772
10
186.57138377659808
20
188.50069193786609
10
189.55868727921904
20
190.25454990909083
0
LWPOLYLINE
5
211
100
AcDbEntity
8
0
100
AcDbPolyline
90
6
70
1
43
0.0
10
186.01253730902098
20
196.28984826352854
10
185.98730350262088
20
199.75385797122487
10
182.97476619359995
20
201.46400970769633
10
179.9874626909791
20
199.71015173647152
10
180.01269649737918
20
196.24614202877524
10
183.02523380640011
20
194.53599029230375
0
LWPOLYLINE
5
212
100
AcDbEntity
8
0
100
AcDbPolyline
90
6
70
1
43
0.0
10
176.55904978811674
20
190.15743689173564
10
179.57158709713758
20
188.44728515526398
10
182.55889059975854
20
190.20114312648869
10
182.5336567933586
20
193.66515283418497
10
179.5211194843377
20
195.3753045706566
10
176.53381598171677
20
193.62144659943192
0
LWPOLYLINE
5
213
100
AcDbEntity
8
0
100
AcDbPolyline
90
6
70
1
43
0.0
10
175.97496951413959
20
201.4106029250942
10
172.98766601151866
20
199.65674495386946
10
173.01289981791859
20
196.19273524617313
10
176.02543712693949
20
194.48258350970153
10
179.01274062956045
20
196.23644148092623
10
178.98750682316049
20
199.70045118862257
0
LWPOLYLINE
5
214
100
AcDbEntity
8
0
100
AcDbPolyline
90
6
70
1
43
0.0
10
175.53345347281908
20
193.71855961678716
10
172.52091616379815
20
195.42871135325885
10
169.53361266117713
20
193.67485338203406
10
169.55884646757715
20
190.21084367433772
10
172.57138377659811
20
188.50069193786609
10
175.55868727921904
20
190.25454990909083
0
LWPOLYLINE
5
215
100
AcDbEntity
8
0
100
AcDbPolyline
90
6
70
1
43
0.0
10
172.01253730902098
20
196.28984826352854
10
171.98730350262088
20
199.75385797122487
10
168.97476619359995
20
201.46400970769633
10
165.98746269097913
20
199.71015173647152
10
166.01269649737918
20
196.24614202877524
10
169.02523380640014
20
194.53599029230375
0
LWPOLYLINE
5
216
100
AcDbEntity
8
0
100
AcDbPolyline
90
6
70
1
43
0.0
10
162.55904978811674
20
190.15743689173564
10
165.57158709713761
20
188.44728515526398
10
168.55889059975854
20
190.20114312648869
10
168.53365679335863
20
193.66515283418497
10
165.52111948433773
20
195.3753045706566
10
162.53381598171677
20
193.62144659943192
0
LWPOLYLINE
5
217
100
AcDbEntity
8
0
100
AcDbPolyline
90
6
70
1
43
0.0
10
161.97496951413962
20
201.4106029250942
10
158.98766601151866
20
199.65674495386946
10
159.01289981791859
20
196.19273524617313
10
162.02543712693952
20
194.48258350970153
10
165.01274062956045
20
196.23644148092623
10
164.98750682316052
20
199.70045118862257
0
LWPOLYLINE
5
218
100
AcDbEntity
8
0
100
AcDbPolyline
90
6
70
1
43
0.0
10
161.53345347281908
20
193.71855961678716
10
158.52091616379815
20
195.42871135325885
10
155.53361266117713
20
193.67485338203406
10
155.55884646757715
20
190.21084367433772
10
158.57138377659811
20
188.50069193786609
10
161.55868727921901
20
190.25454990909083
0
LWPOLYLINE
5
219
100
AcDbEntity
8
0
100
AcDbPolyline
90
6
70
1
43
0.0
10
158.01253730902098
20
196.28984826352854
10
157.98730350262088
20
199.75385797122487
10
154.97476619359995
20
201.46400970769633
10
151.98746269097913
20
199.71015173647152
10
152.01269649737918
20
196.24614202877524
10
155.02523380640011
20
194.53599029230375
0
LWPOLYLINE
5
220
100
AcDbEntity
8
0
100
AcDbPolyline
90
6
70
1
43
0.0
10
148.55904978811674
20
190.15743689173564
10
151.57158709713761
20
188.44728515526398
10
154.55889059975854
20
190.20114312648869
10
154.53365679335863
20
193.66515283418497
10
151.52111948433773
20
195.3753045706566
10
148.53381598171677
20
193.62144659943192
0
LWPOLYLINE
5
221
100
AcDbEntity
8
0
100
AcDbPolyline
90
6
70
1
43
0.0
10
217.53345347281908
20
181.71855961678716
10
214.52091616379815
20
183.42871135325885
10
211.53361266117713
20
181.67485338203406
10
211.55884646757715
20
178.21084367433772
10
214.57138377659811
20
176.50069193786609
10
217.55868727921904
20
178.25454990909083
0
LWPOLYLINE
5
222
100
AcDbEntity
8
0
100
AcDbPolyline
90
6
70
1
43
0.0
10
204.55904978811674
20
178.15743689173564
10
207.57158709713761
20
176.44728515526398
10
210.55889059975854
20
178.20114312648869
10
210.5336567933586
20
181.66515283418499
10
207.5211194843377
20
183.37530457065662
10
204.53381598171677
20
181.62144659943192
0
LWPOLYLINE
5
223
100
AcDbEntity
8
0
100
AcDbPolyline
90
4
70
1
43
0.0
10
204.54055626940959
20
216.6961632065703
10
204.55904978811674
20
214.15743689173567
10
207.57158709713761
20
212.44728515526396
10
208.82972271726965
20
213.18594166750466
42
0.03700016211277049
0
LWPOLYLINE
5
224
100
AcDbEntity
8
0
100
AcDbPolyline
90
52
70
1
43
0.0
10
315.1875
20
243
10
333.56249999999994
20
243
10
333.5625
20
246
10
351.9375
20
246
10
351.93749999999994
20
243
10
363
20
243
10
363
20
231.9375
10
366
20
231.9375
10
365.99999999999994
20
213.5625
10
363
20
213.5625
10
363
20
195.1875
10
366
20
195.1875
10
365.99999999999994
20
176.8125
10
363
20
176.8125
10
363
20
158.43749999999997
10
366
20
158.4375
10
366
20
140.0625
10
363
20
140.0625
10
363.00000000000006
20
129
10
351.9375
20
129.00000000000003
10
351.93749999999994
20
126.00000000000001
10
333.56249999999994
20
126
10
333.56249999999994
20
129
10
315.1875
20
129.00000000000003
10
315.1875
20
126.00000000000001
10
296.8125
20
126
10
296.8125
20
129
10
278.4375
20
129.00000000000003
10
278.43750000000006
20
126.00000000000001
10
260.0625
20
126.00000000000001
10
260.0625
20
129
10
249.00000000000003
20
129.00000000000003
10
249.00000000000003
20
140.0625
10
246
20
140.0625
10
246
20
158.43749999999997
10
249.00000000000003
20
158.43749999999997
10
249.00000000000003
20
176.8125
10
246
20
176.8125
10
246
20
195.1875
10
249.00000000000003
20
195.1875
10
249.00000000000003
20
213.5625
10
246
20
213.5625
10
246
20
231.9375
10
249.00000000000003
20
231.9375
10
249.00000000000003
20
243
10
260.0625
20
243
10
260.0625
20
246
10
278.4375
20
246
10
278.4375
20
243
10
296.8125
20
243
10
296.8125
20
246
10
315.1875
20
246
0
CIRCLE
5
225
100
AcDbEntity
8
0
100
AcDbCircle
10
330.64466094067262
20
87.644660940672665
30
0
40
15
210
0
220
0
230
1
0
CIRCLE
5
226
100
AcDbEntity
8
0
100
AcDbCircle
10
330.64466094067262
20
38.355339059327392
30
0
40
15
210
0
220
0
230
1
0
CIRCLE
5
227
100
AcDbEntity
8
0
100
AcDbCircle
10
281.35533905932755
20
38.355339059327207
30
0
40
15
210
0
220
0
230
1
0
CIRCLE
5
228
100
AcDbEntity
8
0
100
AcDbCircle
10
281.35533905932738
20
87.64466094067258
30
0
40
15
210
0
220
0
230
1
0
LWPOLYLINE
5
229
100
AcDbEntity
8
0
100
AcDbPolyline
90
52
70
1
43
0.0
10
278.4375
20
5.9999999999999964
10
278.4375
20
3.0000000000000071
10
260.0625
20
3.0000000000000071
10
260.0625
20
5.9999999999999964
10
249.00000000000003
20
5.9999999999999964
10
249.00000000000003
20
17.0625
10
246
20
17.0625
10
246
20
35.4375
10
249.00000000000003
20
35.437499999999993
10
249.00000000000003
20
53.8125
10
246
20
53.8125
10
246
20
72.187499999999986
10
249.00000000000003
20
72.1875
10
249.00000000000003
20
90.5625
10
246
20
90.5625
10
246
20
108.9375
10
249.00000000000003
20
108.9375
10
249.00000000000003
20
120
10
260.0625
20
120
10
260.0625
20
123
10
278.4375
20
123
10
278.4375
20
120
10
296.8125
20
120
10
296.8125
20
123
10
315.1875
20
123
10
315.18749999999994
20
120
10
333.56249999999994
20
120
10
333.56249999999994
20
123
10
351.9375
20
123
10
351.9375
20
120
10
363
20
120
10
363
20
108.9375
10
366
20
108.9375
10
366
20
90.5625
10
363
20
90.5625
10
363.00000000000006
20
72.187499999999986
10
366
20
72.187499999999986
10
366
20
53.8125
10
363
20
53.8125
10
363.00000000000006
20
35.4375
10
366
20
35.4375
10
365.99999999999994
20
17.0625
10
363
20
17.0625
10
363.00000000000006
20
5.9999999999999964
10
351.9375
20
5.9999999999999964
10
351.9375
20
3.0000000000000071
10
333.56249999999994
20
3.0000000000000071
10
333.56249999999994
20
5.9999999999999964
10
315.1875
20
5.9999999999999964
10
315.1875
20
3.0000000000000071
10
296.8125
20
3.0000000000000071
10
296.8125
20
5.9999999999999964
0
LWPOLYLINE
5
230
100
AcDbEntity
8
0
100
AcDbPolyline
90
6
70
1
43
0.0
10
203.55868727921901
20
91.254549909090827
10
203.53345347281905
20
94.718559616787147
10
200.52091616379812
20
96.428711353258848
10
197.5336126611771
20
94.674853382034044
10
197.55884646757715
20
91.210843674337724
10
200.57138377659808
20
89.500691937866094
0
LWPOLYLINE
5
231
100
AcDbEntity
8
0
100
AcDbPolyline
90
4
70
1
43
0.0
10
197.02523380640008
20
95.535990292303751
10
199.2069927219072
20
96.816909777684401
42
0.037311309801239763
10
194.00101255795397
20
98.850072840926543
10
194.01269649737915
20
97.246142028775239
0
LWPOLYLINE
5
232
100
AcDbEntity
8
0
100
AcDbPolyline
90
5
70
1
43
0.0
10
193.01274062956043
20
97.236441480926231
10
192.9988565706638
20
99.142397088174619
42
0.040845128713056053
10
186.99035879162051
20
100.28708941060077
10
187.01289981791859
20
97.192735246173129
10
190.02543712693949
20
95.482583509701527
0
LWPOLYLINE
5
233
100
AcDbEntity
8
0
100
AcDbPolyline
90
5
70
1
43
0.0
10
186.01253730902098
20
97.289848263528555
10
185.99002247522697
20
100.38060681152244
42
0.040065194750075327
10
179.98987503563779
20
100.37899340136011
10
180.01269649737918
20
97.246142028775239
10
183.02523380640011
20
95.535990292303751
0
LWPOLYLINE
5
234
100
AcDbEntity
8
0
100
AcDbPolyline
90
5
70
1
43
0.0
10
179.01274062956045
20
97.236441480926231
10
178.99053291659897
20
100.28503954278611
42
0.040733709786790119
10
172.99870229830998
20
99.141721656309755
10
173.01289981791859
20
97.192735246173129
10
176.02543712693949
20
95.482583509701527
0
LWPOLYLINE
5
235
100
AcDbEntity
8
0
100
AcDbPolyline
90
6
70
1
43
0.0
10
168.53365679335863
20
94.665152834184966
10
165.52111948433773
20
96.375304570656596
10
162.53381598171677
20
94.621446599431906
10
162.55904978811674
20
91.157436891735642
10
165.57158709713761
20
89.447285155263984
10
168.55889059975854
20
91.201143126488674
0
LWPOLYLINE
5
236
100
AcDbEntity
8
0
100
AcDbPolyline
90
4
70
1
43
0.0
10
166.77989277519774
20
96.810621431969125
42
-0.037423625817641401
10
172.00116687925029
20
98.850741554142189
10
172.01253730902098
20
97.289848263528555
10
169.02523380640014
20
95.535990292303751
0
LWPOLYLINE
5
237
100
AcDbEntity
8
0
100
AcDbPolyline
90
6
70
1
43
0.0
10
162.53381598171677
20
34.621446599431891
10
162.55904978811674
20
31.157436891735635
10
165.57158709713761
20
29.44728515526397
10
168.55889059975854
20
31.201143126488667
10
168.53365679335863
20
34.665152834184958
10
165.52111948433773
20
36.375304570656589
0
LWPOLYLINE
5
238
100
AcDbEntity
8
0
100
AcDbPolyline
90
4
70
1
43
0.0
10
161.55151282362456
20
32.239434370531114
42
-0.036681427265749959
10
157.28658092792287
20
35.704028142897357
10
158.52091616379815
20
36.428711353258841
10
161.53345347281908
20
34.71855961678714
0
LWPOLYLINE
5
239
100
AcDbEntity
8
0
100
AcDbPolyline
90
5
70
1
43
0.0
10
156.54113463064184
20
36.425981798640478
42
-0.040690195313926474
10
152.58665537171163
20
41.061940183303314
10
154.97476619359995
20
42.46400970769632
10
157.98730350262088
20
40.753857971224868
10
158.01253730902098
20
37.28984826352854
0
LWPOLYLINE
5
240
100
AcDbEntity
8
0
100
AcDbPolyline
90
5
70
1
43
0.0
10
152.09772923552146
20
41.756185333164225
42
-0.04006573286036462
10
149.10506439607829
20
46.956828854431564
10
151.52111948433773
20
48.375304570656596
10
154.53365679335863
20
46.665152834184966
10
154.55889059975854
20
43.201143126488674
0
LWPOLYLINE
5
241
100
AcDbEntity
8
0
100
AcDbPolyline
90
5
70
1
43
0.0
10
148.68721900814671
20
47.871118329330358
42
-0.040859368661849978
10
146.68369432946096
20
53.652490040445421
10
147.97496951413959
20
54.410602925094182
10
150.98750682316049
20
52.700451188622552
10
151.01274062956045
20
49.236441480926217
0
LWPOLYLINE
5
242
100
AcDbEntity
8
0
100
AcDbPolyline
90
4
70
1
43
0.0
10
146.45182557039425
20
54.604706922142164
42
-0.035068718667971038
10
145.63721001465521
20
59.795015676946591
10
147.53345347281908
20
58.718559616787147
10
147.55868727921904
20
55.254549909090819
0
LWPOLYLINE
5
243
100
AcDbEntity
8
0
100
AcDbPolyline
90
6
70
1
43
0.0
10
145.5598461971166
20
60.882245713863682
42
-0.027395706327536386
10
145.55275960349496
20
64.988513687748039
10
147.97496951413959
20
66.410602925094182
10
150.98750682316049
20
64.700451188622552
10
151.01274062956045
20
61.236441480926224
10
148.02543712693952
20
59.482583509701527
0
LWPOLYLINE
5
244
100
AcDbEntity
8
0
100
AcDbPolyline
90
4
70
1
43
0.0
10
145.63021237237737
20
66.12233448983288
42
-0.035242303443753481
10
146.43912029898638
20
71.33978869564514
10
147.53345347281908
20
70.718559616787147
10
147.55868727921904
20
67.254549909090827
0
LWPOLYLINE
5
245
100
AcDbEntity
8
0
100
AcDbPolyline
90
5
70
1
43
0.0
10
146.66061111569104
20
72.257365473771756
42
-0.040764984905000148
10
148.64411602643906
20
78.030743042019509
10
150.98750682316049
20
76.700451188622552
10
151.01274062956045
20
73.236441480926231
10
148.02543712693952
20
71.482583509701527
0
LWPOLYLINE
5
246
100
AcDbEntity
8
0
100
AcDbPolyline
90
5
70
1
43
0.0
10
149.03239387208811
20
78.888729777394431
42
-0.040064239425549202
10
152.00123075614087
20
84.102755871354162
10
154.53365679335863
20
82.665152834184966
10
154.55889059975854
20
79.201143126488674
10
151.57158709713761
20
77.447285155263984
0
LWPOLYLINE
5
247
100
AcDbEntity
8
0
100
AcDbPolyline
90
5
70
1
43
0.0
10
152.57757851427115
20
84.92547082606626
42
-0.040798645999494933
10
156.54164527414076
20
89.574526622323873
10
157.98730350262088
20
88.753857971224875
10
158.01253730902098
20
85.28984826352854
10
155.02523380640011
20
83.535990292303737
0
LWPOLYLINE
5
248
100
AcDbEntity
8
0
100
AcDbPolyline
90
4
70
1
43
0.0
10
157.24295674026493
20
90.254810997623025
42
-0.03699208486856282
10
161.54048806272692
20
93.752875433266937
10
161.55868727921901
20
91.254549909090827
10
158.57138377659811
20
89.500691937866094
0
LWPOLYLINE
5
249
100
AcDbEntity
8
0
100
AcDbPolyline
90
4
70
1
43
0.0
10
168.97476619359995
20
30.46400970769632
10
166.79300727809277
20
29.183090222315609
42
0.037311309801243503
10
171.99898744204606
20
27.149927159073446
10
171.98730350262088
20
28.753857971224868
0
LWPOLYLINE
5
250
100
AcDbEntity
8
0
100
AcDbPolyline
90
5
70
1
43
0.0
10
172.98766601151866
20
28.656744953869442
10
173.00077122987486
20
26.857705883512295
42
0.040845210975298293
10
179.00926946921047
20
25.712950373747393
10
178.98750682316049
20
28.700451188622544
10
175.97496951413959
20
30.410602925094175
0
LWPOLYLINE
5
251
100
AcDbEntity
8
0
100
AcDbPolyline
90
5
70
1
43
0.0
10
179.9874626909791
20
28.710151736471516
10
180.00997752477306
20
25.619393188477559
42
0.040065194750078817
10
186.01012496436229
20
25.621006598639884
10
185.98730350262088
20
28.753857971224868
10
182.97476619359995
20
30.46400970769632
0
LWPOLYLINE
5
252
100
AcDbEntity
8
0
100
AcDbPolyline
90
5
70
1
43
0.0
10
186.98766601151863
20
28.656744953869442
10
187.00909592477706
20
25.71492054633736
42
0.040733634094665655
10
193.00092699958552
20
26.858175763404503
10
192.98750682316046
20
28.700451188622544
10
189.97496951413956
20
30.410602925094175
0
LWPOLYLINE
5
253
100
AcDbEntity
8
0
100
AcDbPolyline
90
4
70
1
43
0.0
10
193.9874626909791
20
28.710151736471516
10
193.99883312074985
20
27.149258445857821
42
0.037423625817643982
10
199.22010722480235
20
29.189378568031081
10
196.97476619359992
20
30.46400970769632
0
LWPOLYLINE
5
254
100
AcDbEntity
8
0
100
AcDbPolyline
90
6
70
1
43
0.0
10
197.55884646757715
20
31.21084367433771
10
200.57138377659808
20
29.50069193786608
10
203.55868727921901
20
31.254549909090812
10
203.53345347281905
20
34.71855961678714
10
200.52091616379812
20
36.428711353258841
10
197.5336126611771
20
34.674853382034037
0
LWPOLYLINE
5
255
100
AcDbEntity
8
0
100
AcDbPolyline
90
4
70
1
43
0.0
10
204.53381598171677
20
34.621446599431891
10
204.55064716170969
20
32.310920396474998
42
0.035815273704111077
10
208.70973190547028
20
35.700555219037035
10
207.5211194843377
20
36.375304570656589
0
LWPOLYLINE
5
256
100
AcDbEntity
8
0
100
AcDbPolyline
90
5
70
1
43
0.0
10
208.01269649737918
20
37.246142028775225
10
209.45835472585935
20
36.425473377676212
42
0.040798645999495418
10
213.42242148572868
20
41.074529173933939
10
210.97476619359995
20
42.46400970769632
10
207.9874626909791
20
40.710151736471516
0
LWPOLYLINE
5
257
100
AcDbEntity
8
0
100
AcDbPolyline
90
5
70
1
43
0.0
10
211.55884646757715
20
43.21084367433771
10
213.96362104126655
20
41.84570558934108
42
0.040064381722968993
10
216.94113662743916
20
47.054804973362366
10
214.52091616379815
20
48.428711353258848
10
211.53361266117713
20
46.674853382034044
0
LWPOLYLINE
5
258
100
AcDbEntity
8
0
100
AcDbPolyline
90
5
70
1
43
0.0
10
215.01289981791859
20
49.192735246173115
10
217.31842968105073
20
47.883936219148289
42
0.040745770155277729
10
219.31555673133028
20
53.649580795839469
10
217.97496951413959
20
54.410602925094182
10
214.98766601151863
20
52.656744953869449
0
LWPOLYLINE
5
259
100
AcDbEntity
8
0
100
AcDbPolyline
90
4
70
1
43
0.0
10
218.55904978811674
20
55.157436891735642
10
219.54639061829573
20
54.596945033206978
42
0.034417338881713964
10
220.35362073477228
20
59.689861331787924
10
218.53381598171677
20
58.621446599431899
0
LWPOLYLINE
5
260
100
AcDbEntity
8
0
100
AcDbPolyline
90
6
70
1
43
0.0
10
218.02543712693949
20
59.482583509701527
10
220.44120372790394
20
60.900889853868634
42
0.027399514038992791
10
220.4462149917112
20
65.007730757482634
10
217.97496951413959
20
66.410602925094182
10
214.98766601151863
20
64.656744953869449
10
215.01289981791859
20
61.192735246173122
0
LWPOLYLINE
5
261
100
AcDbEntity
8
0
100
AcDbPolyline
90
4
70
1
43
0.0
10
218.55904978811674
20
67.157436891735642
10
220.36915651791858
20
66.129878773899151
42
0.034495027712730546
10
219.5839525746263
20
71.237986041351078
10
218.53381598171677
20
70.621446599431891
0
LWPOLYLINE
5
262
100
AcDbEntity
8
0
100
AcDbPolyline
90
5
70
1
43
0.0
10
218.02543712693949
20
71.482583509701527
10
219.34013238269966
20
72.254446412825772
42
0.04088016156830887
10
217.3501756289844
20
78.043783907578742
10
214.98766601151863
20
76.656744953869449
10
215.01289981791859
20
73.192735246173129
0
LWPOLYLINE
5
263
100
AcDbEntity
8
0
100
AcDbPolyline
90
5
70
1
43
0.0
10
214.57138377659811
20
77.500691937866094
10
216.96070605388999
20
78.90347271262722
42
0.04006751460506075
10
213.98932998303854
20
84.116614956056438
10
211.53361266117713
20
82.67485338203403
10
211.55884646757715
20
79.210843674337724
0
LWPOLYLINE
5
264
100
AcDbEntity
8
0
100
AcDbPolyline
90
5
70
1
43
0.0
10
211.02523380640011
20
83.535990292303737
10
213.4133446282884
20
84.938059816696665
42
0.040690195313923608
10
209.45886536935808
20
89.574018201359479
10
207.9874626909791
20
88.710151736471516
10
208.01269649737918
20
85.246142028775225
0
LWPOLYLINE
5
265
100
AcDbEntity
8
0
100
AcDbPolyline
90
52
70
1
43
0.0
10
240
20
108.9375
10
243
20
108.9375
10
243
20
90.5625
10
240
20
90.5625
10
240
20
72.187499999999986
10
243
20
72.187499999999986
10
243
20
53.8125
10
240
20
53.8125
10
240
20
35.4375
10
243
20
35.4375
10
243
20
17.0625
10
240
20
17.0625
10
240
20
2.9999999999999982
10
228.9375
20
2.9999999999999982
10
228.9375
20
6.0000000000000009
10
210.5625
20
6.0000000000000009
10
210.5625
20
2.9999999999999982
10
192.1875
20
2.9999999999999982
10
192.1875
20
6.0000000000000009
10
173.81249999999997
20
6.0000000000000009
10
173.81249999999997
20
2.9999999999999982
10
155.4375
20
2.9999999999999982
10
155.4375
20
6.0000000000000009
10
137.0625
20
6.0000000000000009
10
137.0625
20
2.9999999999999982
10
126.00000000000001
20
2.9999999999999982
10
126.00000000000001
20
17.0625
10
123
20
17.0625
10
123
20
35.4375
10
126.00000000000001
20
35.4375
10
126.00000000000001
20
53.8125
10
123
20
53.8125
10
123
20
72.187499999999986
10
126.00000000000001
20
72.1875
10
126.00000000000001
20
90.5625
10
123
20
90.5625
10
123
20
108.9375
10
126.00000000000001
20
108.9375
10
126.00000000000001
20
123
10
137.0625
20
123
10
137.0625
20
120
10
155.4375
20
120
10
155.4375
20
123
10
173.81249999999997
20
123
10
173.81249999999997
20
120
10
192.1875
20
120
10
192.18749999999997
20
123
10
210.5625
20
123
10
210.5625
20
120
10
228.9375
20
120
10
228.9375
20
123
10
240
20
123
0
LWPOLYLINE
5
266
100
AcDbEntity
8
0
100
AcDbPolyline
90
6
70
1
43
0.0
10
214.01253730902098
20
49.28984826352854
10
213.98730350262088
20
52.753857971224875
10
210.97476619359995
20
54.46400970769632
10
207.9874626909791
20
52.710151736471516
10
208.01269649737918
20
49.246142028775225
10
211.02523380640011
20
47.535990292303737
0
LWPOLYLINE
5
267
100
AcDbEntity
8
0
100
AcDbPolyline
90
6
70
1
43
0.0
10
148.55904978811674
20
55.157436891735642
10
151.57158709713761
20
53.447285155263977
10
154.55889059975854
20
55.201143126488674
10
154.53365679335863
20
58.665152834184966
10
151.52111948433773
20
60.375304570656596
10
148.53381598171677
20
58.621446599431899
0
LWPOLYLINE
5
268
100
AcDbEntity
8
0
100
AcDbPolyline
90
6
70
1
43
0.0
10
158.01253730902098
20
61.289848263528548
10
157.98730350262088
20
64.753857971224875
10
154.97476619359995
20
66.46400970769632
10
151.98746269097913
20
64.710151736471516
10
152.01269649737918
20
61.246142028775232
10
155.02523380640011
20
59.535990292303744
0
LWPOLYLINE
5
269
100
AcDbEntity
8
0
100
AcDbPolyline
90
6
70
1
43
0.0
10
161.53345347281908
20
58.718559616787147
10
158.52091616379815
20
60.428711353258848
10
155.53361266117713
20
58.674853382034044
10
155.55884646757715
20
55.210843674337717
10
158.57138377659811
20
53.500691937866087
10
161.55868727921901
20
55.254549909090819
0
LWPOLYLINE
5
270
100
AcDbEntity
8
0
100
AcDbPolyline
90
6
70
1
43
0.0
10
161.97496951413962
20
66.410602925094182
10
158.98766601151866
20
64.656744953869449
10
159.01289981791859
20
61.192735246173122
10
162.02543712693952
20
59.482583509701527
10
165.01274062956045
20
61.236441480926224
10
164.98750682316052
20
64.700451188622552
0
LWPOLYLINE
5
271
100
AcDbEntity
8
0
100
AcDbPolyline
90
6
70
1
43
0.0
10
162.55904978811674
20
55.157436891735642
10
165.57158709713761
20
53.447285155263977
10
168.55889059975854
20
55.201143126488674
10
168.53365679335863
20
58.665152834184966
10
165.52111948433773
20
60.375304570656596
10
162.53381598171677
20
58.621446599431899
0
LWPOLYLINE
5
272
100
AcDbEntity
8
0
100
AcDbPolyline
90
6
70
1
43
0.0
10
172.01253730902098
20
61.289848263528548
10
171.98730350262088
20
64.753857971224875
10
168.97476619359995
20
66.46400970769632
10
165.98746269097913
20
64.710151736471516
10
166.01269649737918
20
61.246142028775232
10
169.02523380640014
20
59.535990292303744
0
LWPOLYLINE
5
273
100
AcDbEntity
8
0
100
AcDbPolyline
90
6
70
1
43
0.0
10
175.53345347281908
20
58.718559616787147
10
172.52091616379815
20
60.428711353258848
10
169.53361266117713
20
58.674853382034044
10
169.55884646757715
20
55.210843674337717
10
172.57138377659811
20
53.500691937866087
10
175.55868727921904
20
55.254549909090819
0
LWPOLYLINE
5
274
100
AcDbEntity
8
0
100
AcDbPolyline
90
6
70
1
43
0.0
10
190.55904978811671
20
55.157436891735642
10
193.57158709713758
20
53.447285155263977
10
196.55889059975851
20
55.201143126488674
10
196.5336567933586
20
58.665152834184966
10
193.5211194843377
20
60.375304570656596
10
190.53381598171677
20
58.621446599431899
0
LWPOLYLINE
5
275
100
AcDbEntity
8
0
100
AcDbPolyline
90
6
70
1
43
0.0
10
203.53345347281905
20
58.718559616787147
10
200.52091616379812
20
60.428711353258848
10
197.5336126611771
20
58.674853382034044
10
197.55884646757715
20
55.210843674337717
10
200.57138377659808
20
53.500691937866087
10
203.55868727921901
20
55.254549909090819
0
LWPOLYLINE
5
276
100
AcDbEntity
8
0
100
AcDbPolyline
90
6
70
1
43
0.0
10
189.97496951413956
20
42.410602925094175
10
186.98766601151863
20
40.656744953869442
10
187.01289981791859
20
37.192735246173115
10
190.02543712693949
20
35.48258350970152
10
193.01274062956043
20
37.236441480926217
10
192.98750682316046
20
40.700451188622544
0
LWPOLYLINE
5
277
100
AcDbEntity
8
0
100
AcDbPolyline
90
6
70
1
43
0.0
10
190.55904978811671
20
31.157436891735635
10
193.57158709713758
20
29.44728515526397
10
196.55889059975851
20
31.201143126488667
10
196.5336567933586
20
34.665152834184958
10
193.5211194843377
20
36.375304570656589
10
190.53381598171677
20
34.621446599431891
0
LWPOLYLINE
5
278
100
AcDbEntity
8
0
100
AcDbPolyline
90
6
70
1
43
0.0
10
200.01253730902096
20
37.28984826352854
10
199.98730350262088
20
40.753857971224868
10
196.97476619359992
20
42.46400970769632
10
193.9874626909791
20
40.710151736471516
10
194.01269649737915
20
37.246142028775225
10
197.02523380640008
20
35.535990292303737
0
LWPOLYLINE
5
279
100
AcDbEntity
8
0
100
AcDbPolyline
90
6
70
1
43
0.0
10
203.97496951413959
20
42.410602925094175
10
200.98766601151866
20
40.656744953869442
10
201.01289981791862
20
37.192735246173115
10
204.02543712693952
20
35.48258350970152
10
207.01274062956045
20
37.236441480926217
10
206.98750682316049
20
40.700451188622544
0
LWPOLYLINE
5
280
100
AcDbEntity
8
0
100
AcDbPolyline
90
6
70
1
43
0.0
10
158.01253730902098
20
49.28984826352854
10
157.98730350262088
20
52.753857971224875
10
154.97476619359995
20
54.46400970769632
10
151.98746269097913
20
52.710151736471516
10
152.01269649737918
20
49.246142028775225
10
155.02523380640011
20
47.535990292303737
0
LWPOLYLINE
5
281
100
AcDbEntity
8
0
100
AcDbPolyline
90
6
70
1
43
0.0
10
161.53345347281908
20
46.718559616787147
10
158.52091616379815
20
48.428711353258848
10
155.53361266117713
20
46.674853382034044
10
155.55884646757715
20
43.21084367433771
10
158.57138377659811
20
41.50069193786608
10
161.55868727921901
20
43.254549909090812
0
LWPOLYLINE
5
282
100
AcDbEntity
8
0
100
AcDbPolyline
90
6
70
1
43
0.0
10
161.97496951413962
20
54.410602925094182
10
158.98766601151866
20
52.656744953869449
10
159.01289981791859
20
49.192735246173115
10
162.02543712693952
20
47.482583509701527
10
165.01274062956045
20
49.236441480926217
10
164.98750682316052
20
52.700451188622552
0
LWPOLYLINE
5
283
100
AcDbEntity
8
0
100
AcDbPolyline
90
6
70
1
43
0.0
10
162.55904978811674
20
43.157436891735642
10
165.57158709713761
20
41.44728515526397
10
168.55889059975854
20
43.201143126488674
10
168.53365679335863
20
46.665152834184966
10
165.52111948433773
20
48.375304570656596
10
162.53381598171677
20
46.621446599431891
0
LWPOLYLINE
5
284
100
AcDbEntity
8
0
100
AcDbPolyline
90
6
70
1
43
0.0
10
172.01253730902098
20
49.28984826352854
10
171.98730350262088
20
52.753857971224875
10
168.97476619359995
20
54.46400970769632
10
165.98746269097913
20
52.710151736471516
10
166.01269649737918
20
49.246142028775225
10
169.02523380640014
20
47.535990292303737
0
LWPOLYLINE
5
285
100
AcDbEntity
8
0
100
AcDbPolyline
90
6
70
1
43
0.0
10
175.53345347281908
20
46.718559616787147
10
172.52091616379815
20
48.428711353258848
10
169.53361266117713
20
46.674853382034044
10
169.55884646757715
20
43.21084367433771
10
172.57138377659811
20
41.50069193786608
10
175.55868727921904
20
43.254549909090812
0
LWPOLYLINE
5
286
100
AcDbEntity
8
0
100
AcDbPolyline
90
6
70
1
43
0.0
10
175.97496951413959
20
54.410602925094182
10
172.98766601151866
20
52.656744953869449
10
173.01289981791859
20
49.192735246173115
10
176.02543712693949
20
47.482583509701527
10
179.01274062956045
20
49.236441480926217
10
178.98750682316049
20
52.700451188622552
0
LWPOLYLINE
5
287
100
AcDbEntity
8
0
100
AcDbPolyline
90
6
70
1
43
0.0
10
176.55904978811674
20
43.157436891735642
10
179.57158709713758
20
41.44728515526397
10
182.55889059975854
20
43.201143126488674
10
182.5336567933586
20
46.665152834184966
10
179.5211194843377
20
48.375304570656596
10
176.53381598171677
20
46.621446599431891
0
LWPOLYLINE
5
288
100
AcDbEntity
8
0
100
AcDbPolyline
90
6
70
1
43
0.0
10
186.01253730902098
20
49.28984826352854
10
185.98730350262088
20
52.753857971224875
10
182.97476619359995
20
54.46400970769632
10
179.9874626909791
20
52.710151736471516
10
180.01269649737918
20
49.246142028775225
10
183.02523380640011
20
47.535990292303737
0
LWPOLYLINE
5
289
100
AcDbEntity
8
0
100
AcDbPolyline
90
6
70
1
43
0.0
10
179.01274062956045
20
61.236441480926224
10
178.98750682316049
20
64.700451188622552
10
175.97496951413959
20
66.410602925094182
10
172.98766601151866
20
64.656744953869449
10
173.01289981791859
20
61.192735246173122
10
176.02543712693949
20
59.482583509701527
0
LWPOLYLINE
5
290
100
AcDbEntity
8
0
100
AcDbPolyline
90
6
70
1
43
0.0
10
182.5336567933586
20
58.665152834184966
10
179.5211194843377
20
60.375304570656596
10
176.53381598171677
20
58.621446599431899
10
176.55904978811674
20
55.157436891735642
10
179.57158709713758
20
53.447285155263977
10
182.55889059975854
20
55.201143126488674
0
LWPOLYLINE
5
291
100
AcDbEntity
8
0
100
AcDbPolyline
90
6
70
1
43
0.0
10
189.53345347281908
20
58.718559616787147
10
186.52091616379812
20
60.428711353258848
10
183.53361266117713
20
58.674853382034044
10
183.55884646757715
20
55.210843674337717
10
186.57138377659808
20
53.500691937866087
10
189.55868727921904
20
55.254549909090819
0
LWPOLYLINE
5
292
100
AcDbEntity
8
0
100
AcDbPolyline
90
6
70
1
43
0.0
10
161.97496951413962
20
42.410602925094175
10
158.98766601151866
20
40.656744953869442
10
159.01289981791859
20
37.192735246173115
10
162.02543712693952
20
35.48258350970152
10
165.01274062956045
20
37.236441480926217
10
164.98750682316052
20
40.700451188622544
0
LWPOLYLINE
5
293
100
AcDbEntity
8
0
100
AcDbPolyline
90
6
70
1
43
0.0
10
172.01253730902098
20
37.28984826352854
10
171.98730350262088
20
40.753857971224868
10
168.97476619359995
20
42.46400970769632
10
165.98746269097913
20
40.710151736471516
10
166.01269649737918
20
37.246142028775225
10
169.02523380640014
20
35.535990292303737
0
LWPOLYLINE
5
294
100
AcDbEntity
8
0
100
AcDbPolyline
90
6
70
1
43
0.0
10
175.53345347281908
20
34.71855961678714
10
172.52091616379815
20
36.428711353258841
10
169.53361266117713
20
34.674853382034037
10
169.55884646757715
20
31.21084367433771
10
172.57138377659811
20
29.50069193786608
10
175.55868727921904
20
31.254549909090812
0
LWPOLYLINE
5
295
100
AcDbEntity
8
0
100
AcDbPolyline
90
6
70
1
43
0.0
10
175.97496951413959
20
42.410602925094175
10
172.98766601151866
20
40.656744953869442
10
173.01289981791859
20
37.192735246173115
10
176.02543712693949
20
35.48258350970152
10
179.01274062956045
20
37.236441480926217
10
178.98750682316049
20
40.700451188622544
0
LWPOLYLINE
5
296
100
AcDbEntity
8
0
100
AcDbPolyline
90
6
70
1
43
0.0
10
176.55904978811674
20
31.157436891735635
10
179.57158709713758
20
29.44728515526397
10
182.55889059975854
20
31.201143126488667
10
182.5336567933586
20
34.665152834184958
10
179.5211194843377
20
36.375304570656589
10
176.53381598171677
20
34.621446599431891
0
LWPOLYLINE
5
297
100
AcDbEntity
8
0
100
AcDbPolyline
90
6
70
1
43
0.0
10
186.01253730902098
20
37.28984826352854
10
185.98730350262088
20
40.753857971224868
10
182.97476619359995
20
42.46400970769632
10
179.9874626909791
20
40.710151736471516
10
180.01269649737918
20
37.246142028775225
10
183.02523380640011
20
35.535990292303737
0
LWPOLYLINE
5
298
100
AcDbEntity
8
0
100
AcDbPolyline
90
6
70
1
43
0.0
10
189.53345347281908
20
34.71855961678714
10
186.52091616379812
20
36.428711353258841
10
183.53361266117713
20
34.674853382034037
10
183.55884646757715
20
31.21084367433771
10
186.57138377659808
20
29.50069193786608
10
189.55868727921904
20
31.254549909090812
0
LWPOLYLINE
5
299
100
AcDbEntity
8
0
100
AcDbPolyline
90
6
70
1
43
0.0
10
179.9874626909791
20
64.710151736471516
10
180.01269649737918
20
61.246142028775232
10
183.02523380640011
20
59.535990292303744
10
186.01253730902098
20
61.289848263528548
10
185.98730350262088
20
64.753857971224875
10
182.97476619359995
20
66.46400970769632
0
LWPOLYLINE
5
300
100
AcDbEntity
8
0
100
AcDbPolyline
90
6
70
1
43
0.0
10
189.97496951413956
20
66.410602925094182
10
186.98766601151863
20
64.656744953869449
10
187.01289981791859
20
61.192735246173122
10
190.02543712693949
20
59.482583509701527
10
193.01274062956043
20
61.236441480926224
10
192.98750682316046
20
64.700451188622552
0
LWPOLYLINE
5
301
100
AcDbEntity
8
0
100
AcDbPolyline
90
6
70
1
43
0.0
10
200.01253730902096
20
61.289848263528548
10
199.98730350262088
20
64.753857971224875
10
196.97476619359992
20
66.46400970769632
10
193.9874626909791
20
64.710151736471516
10
194.01269649737915
20
61.246142028775232
10
197.02523380640008
20
59.535990292303744
0
LWPOLYLINE
5
302
100
AcDbEntity
8
0
100
AcDbPolyline
90
6
70
1
43
0.0
10
203.97496951413959
20
66.410602925094182
10
200.98766601151866
20
64.656744953869449
10
201.01289981791862
20
61.192735246173122
10
204.02543712693952
20
59.482583509701527
10
207.01274062956045
20
61.236441480926224
10
206.98750682316049
20
64.700451188622552
0
LWPOLYLINE
5
303
100
AcDbEntity
8
0
100
AcDbPolyline
90
6
70
1
43
0.0
10
214.01253730902098
20
61.289848263528548
10
213.98730350262088
20
64.753857971224875
10
210.97476619359995
20
66.46400970769632
10
207.9874626909791
20
64.710151736471516
10
208.01269649737918
20
61.246142028775232
10
211.02523380640011
20
59.535990292303744
0
LWPOLYLINE
5
304
100
AcDbEntity
8
0
100
AcDbPolyline
90
6
70
1
43
0.0
10
204.55904978811674
20
43.157436891735642
10
207.57158709713761
20
41.44728515526397
10
210.55889059975854
20
43.201143126488674
10
210.5336567933586
20
46.665152834184966
10
207.5211194843377
20
48.375304570656596
10
204.53381598171677
20
46.621446599431891
0
LWPOLYLINE
5
305
100
AcDbEntity
8
0
100
AcDbPolyline
90
6
70
1
43
0.0
10
203.97496951413959
20
54.410602925094182
10
200.98766601151866
20
52.656744953869449
10
201.01289981791862
20
49.192735246173115
10
204.02543712693952
20
47.482583509701527
10
207.01274062956045
20
49.236441480926217
10
206.98750682316049
20
52.700451188622552
0
LWPOLYLINE
5
306
100
AcDbEntity
8
0
100
AcDbPolyline
90
6
70
1
43
0.0
10
203.53345347281905
20
46.718559616787147
10
200.52091616379812
20
48.428711353258848
10
197.5336126611771
20
46.674853382034044
10
197.55884646757715
20
43.21084367433771
10
200.57138377659808
20
41.50069193786608
10
203.55868727921901
20
43.254549909090812
0
LWPOLYLINE
5
307
100
AcDbEntity
8
0
100
AcDbPolyline
90
6
70
1
43
0.0
10
200.01253730902096
20
49.28984826352854
10
199.98730350262088
20
52.753857971224875
10
196.97476619359992
20
54.46400970769632
10
193.9874626909791
20
52.710151736471516
10
194.01269649737915
20
49.246142028775225
10
197.02523380640008
20
47.535990292303737
0
LWPOLYLINE
5
308
100
AcDbEntity
8
0
100
AcDbPolyline
90
6
70
1
43
0.0
10
190.55904978811671
20
43.157436891735642
10
193.57158709713758
20
41.44728515526397
10
196.55889059975851
20
43.201143126488674
10
196.5336567933586
20
46.665152834184966
10
193.5211194843377
20
48.375304570656596
10
190.53381598171677
20
46.621446599431891
0
LWPOLYLINE
5
309
100
AcDbEntity
8
0
100
AcDbPolyline
90
6
70
1
43
0.0
10
189.97496951413956
20
54.410602925094182
10
186.98766601151863
20
52.656744953869449
10
187.01289981791859
20
49.192735246173115
10
190.02543712693949
20
47.482583509701527
10
193.01274062956043
20
49.236441480926217
10
192.98750682316046
20
52.700451188622552
0
LWPOLYLINE
5
310
100
AcDbEntity
8
0
100
AcDbPolyline
90
6
70
1
43
0.0
10
189.53345347281908
20
46.718559616787147
10
186.52091616379812
20
48.428711353258848
10
183.53361266117713
20
46.674853382034044
10
183.55884646757715
20
43.21084367433771
10
186.57138377659808
20
41.50069193786608
10
189.55868727921904
20
43.254549909090812
0
LWPOLYLINE
5
311
100
AcDbEntity
8
0
100
AcDbPolyline
90
6
70
1
43
0.0
10
204.55904978811674
20
79.157436891735642
10
207.57158709713761
20
77.447285155263984
10
210.55889059975854
20
79.201143126488674
10
210.5336567933586
20
82.665152834184966
10
207.5211194843377
20
84.375304570656596
10
204.53381598171677
20
82.621446599431891
0
LWPOLYLINE
5
312
100
AcDbEntity
8
0
100
AcDbPolyline
90
6
70
1
43
0.0
10
203.97496951413959
20
90.410602925094167
10
200.98766601151866
20
88.656744953869435
10
201.01289981791862
20
85.192735246173115
10
204.02543712693952
20
83.482583509701527
10
207.01274062956045
20
85.236441480926217
10
206.98750682316049
20
88.700451188622537
0
LWPOLYLINE
5
313
100
AcDbEntity
8
0
100
AcDbPolyline
90
6
70
1
43
0.0
10
203.53345347281905
20
82.718559616787132
10
200.52091616379812
20
84.428711353258848
10
197.5336126611771
20
82.67485338203403
10
197.55884646757715
20
79.210843674337724
10
200.57138377659808
20
77.500691937866094
10
203.55868727921901
20
79.254549909090827
0
LWPOLYLINE
5
314
100
AcDbEntity
8
0
100
AcDbPolyline
90
6
70
1
43
0.0
10
200.01253730902096
20
85.28984826352854
10
199.98730350262088
20
88.753857971224875
10
196.97476619359992
20
90.46400970769632
10
193.9874626909791
20
88.710151736471516
10
194.01269649737915
20
85.246142028775225
10
197.02523380640008
20
83.535990292303737
0
LWPOLYLINE
5
315
100
AcDbEntity
8
0
100
AcDbPolyline
90
6
70
1
43
0.0
10
190.55904978811671
20
79.157436891735642
10
193.57158709713758
20
77.447285155263984
10
196.55889059975851
20
79.201143126488674
10
196.5336567933586
20
82.665152834184966
10
193.5211194843377
20
84.375304570656596
10
190.53381598171677
20
82.621446599431891
0
LWPOLYLINE
5
316
100
AcDbEntity
8
0
100
AcDbPolyline
90
6
70
1
43
0.0
10
190.55904978811671
20
91.157436891735642
10
193.57158709713758
20
89.447285155263984
10
196.55889059975851
20
91.201143126488674
10
196.5336567933586
20
94.665152834184966
10
193.5211194843377
20
96.375304570656596
10
190.53381598171677
20
94.621446599431906
0
LWPOLYLINE
5
317
100
AcDbEntity
8
0
100
AcDbPolyline
90
6
70
1
43
0.0
10
189.97496951413956
20
90.410602925094167
10
186.98766601151863
20
88.656744953869435
10
187.01289981791859
20
85.192735246173115
10
190.02543712693949
20
83.482583509701527
10
193.01274062956043
20
85.236441480926217
10
192.98750682316046
20
88.700451188622537
0
LWPOLYLINE
5
318
100
AcDbEntity
8
0
100
AcDbPolyline
90
6
70
1
43
0.0
10
189.53345347281908
20
94.718559616787147
10
186.52091616379812
20
96.428711353258848
10
183.53361266117713
20
94.674853382034044
10
183.55884646757715
20
91.210843674337724
10
186.57138377659808
20
89.500691937866094
10
189.55868727921904
20
91.254549909090827
0
LWPOLYLINE
5
319
100
AcDbEntity
8
0
100
AcDbPolyline
90
6
70
1
43
0.0
10
189.53345347281908
20
82.718559616787132
10
186.52091616379812
20
84.428711353258848
10
183.53361266117713
20
82.67485338203403
10
183.55884646757715
20
79.210843674337724
10
186.57138377659808
20
77.500691937866094
10
189.55868727921904
20
79.254549909090827
0
LWPOLYLINE
5
320
100
AcDbEntity
8
0
100
AcDbPolyline
90
6
70
1
43
0.0
10
176.55904978811674
20
91.157436891735642
10
179.57158709713758
20
89.447285155263984
10
182.55889059975854
20
91.201143126488674
10
182.5336567933586
20
94.665152834184966
10
179.5211194843377
20
96.375304570656596
10
176.53381598171677
20
94.621446599431906
0
LWPOLYLINE
5
321
100
AcDbEntity
8
0
100
AcDbPolyline
90
6
70
1
43
0.0
10
186.01253730902098
20
85.28984826352854
10
185.98730350262088
20
88.753857971224875
10
182.97476619359995
20
90.46400970769632
10
179.9874626909791
20
88.710151736471516
10
180.01269649737918
20
85.246142028775225
10
183.02523380640011
20
83.535990292303737
0
LWPOLYLINE
5
322
100
AcDbEntity
8
0
100
AcDbPolyline
90
6
70
1
43
0.0
10
175.53345347281908
20
94.718559616787147
10
172.52091616379815
20
96.428711353258848
10
169.53361266117713
20
94.674853382034044
10
169.55884646757715
20
91.210843674337724
10
172.57138377659811
20
89.500691937866094
10
175.55868727921904
20
91.254549909090827
0
LWPOLYLINE
5
323
100
AcDbEntity
8
0
100
AcDbPolyline
90
6
70
1
43
0.0
10
176.55904978811674
20
79.157436891735642
10
179.57158709713758
20
77.447285155263984
10
182.55889059975854
20
79.201143126488674
10
182.5336567933586
20
82.665152834184966
10
179.5211194843377
20
84.375304570656596
10
176.53381598171677
20
82.621446599431891
0
LWPOLYLINE
5
324
100
AcDbEntity
8
0
100
AcDbPolyline
90
6
70
1
43
0.0
10
217.53345347281908
20
70.718559616787147
10
214.52091616379815
20
72.428711353258848
10
211.53361266117713
20
70.674853382034044
10
211.55884646757715
20
67.210843674337724
10
214.57138377659811
20
65.500691937866094
10
217.55868727921904
20
67.254549909090827
0
LWPOLYLINE
5
325
100
AcDbEntity
8
0
100
AcDbPolyline
90
6
70
1
43
0.0
10
175.97496951413959
20
90.410602925094167
10
172.98766601151866
20
88.656744953869435
10
173.01289981791859
20
85.192735246173115
10
176.02543712693949
20
83.482583509701527
10
179.01274062956045
20
85.236441480926217
10
178.98750682316049
20
88.700451188622537
0
LWPOLYLINE
5
326
100
AcDbEntity
8
0
100
AcDbPolyline
90
6
70
1
43
0.0
10
214.01253730902098
20
73.28984826352854
10
213.98730350262088
20
76.753857971224875
10
210.97476619359995
20
78.464009707696334
10
207.9874626909791
20
76.710151736471516
10
208.01269649737918
20
73.246142028775239
10
211.02523380640011
20
71.535990292303751
0
LWPOLYLINE
5
327
100
AcDbEntity
8
0
100
AcDbPolyline
90
6
70
1
43
0.0
10
175.53345347281908
20
82.718559616787132
10
172.52091616379815
20
84.428711353258848
10
169.53361266117713
20
82.67485338203403
10
169.55884646757715
20
79.210843674337724
10
172.57138377659811
20
77.500691937866094
10
175.55868727921904
20
79.254549909090827
0
LWPOLYLINE
5
328
100
AcDbEntity
8
0
100
AcDbPolyline
90
6
70
1
43
0.0
10
204.55904978811674
20
67.157436891735642
10
207.57158709713761
20
65.447285155263984
10
210.55889059975854
20
67.201143126488674
10
210.5336567933586
20
70.665152834184966
10
207.5211194843377
20
72.375304570656596
10
204.53381598171677
20
70.621446599431891
0
LWPOLYLINE
5
329
100
AcDbEntity
8
0
100
AcDbPolyline
90
6
70
1
43
0.0
10
172.01253730902098
20
85.28984826352854
10
171.98730350262088
20
88.753857971224875
10
168.97476619359995
20
90.46400970769632
10
165.98746269097913
20
88.710151736471516
10
166.01269649737918
20
85.246142028775225
10
169.02523380640014
20
83.535990292303737
0
LWPOLYLINE
5
330
100
AcDbEntity
8
0
100
AcDbPolyline
90
6
70
1
43
0.0
10
203.97496951413959
20
78.410602925094182
10
200.98766601151866
20
76.656744953869449
10
201.01289981791862
20
73.192735246173129
10
204.02543712693952
20
71.482583509701527
10
207.01274062956045
20
73.236441480926231
10
206.98750682316049
20
76.700451188622552
0
LWPOLYLINE
5
331
100
AcDbEntity
8
0
100
AcDbPolyline
90
6
70
1
43
0.0
10
162.55904978811674
20
79.157436891735642
10
165.57158709713761
20
77.447285155263984
10
168.55889059975854
20
79.201143126488674
10
168.53365679335863
20
82.665152834184966
10
165.52111948433773
20
84.375304570656596
10
162.53381598171677
20
82.621446599431891
0
LWPOLYLINE
5
332
100
AcDbEntity
8
0
100
AcDbPolyline
90
6
70
1
43
0.0
10
203.53345347281905
20
70.718559616787147
10
200.52091616379812
20
72.428711353258848
10
197.5336126611771
20
70.674853382034044
10
197.55884646757715
20
67.210843674337724
10
200.57138377659808
20
65.500691937866094
10
203.55868727921901
20
67.254549909090827
0
LWPOLYLINE
5
333
100
AcDbEntity
8
0
100
AcDbPolyline
90
6
70
1
43
0.0
10
161.97496951413962
20
90.410602925094167
10
158.98766601151866
20
88.656744953869435
10
159.01289981791859
20
85.192735246173115
10
162.02543712693952
20
83.482583509701527
10
165.01274062956045
20
85.236441480926217
10
164.98750682316052
20
88.700451188622537
0
LWPOLYLINE
5
334
100
AcDbEntity
8
0
100
AcDbPolyline
90
6
70
1
43
0.0
10
200.01253730902096
20
73.28984826352854
10
199.98730350262088
20
76.753857971224875
10
196.97476619359992
20
78.464009707696334
10
193.9874626909791
20
76.710151736471516
10
194.01269649737915
20
73.246142028775239
10
197.02523380640008
20
71.535990292303751
0
LWPOLYLINE
5
335
100
AcDbEntity
8
0
100
AcDbPolyline
90
6
70
1
43
0.0
10
161.53345347281908
20
82.718559616787132
10
158.52091616379815
20
84.428711353258848
10
155.53361266117713
20
82.67485338203403
10
155.55884646757715
20
79.210843674337724
10
158.57138377659811
20
77.500691937866094
10
161.55868727921901
20
79.254549909090827
0
LWPOLYLINE
5
336
100
AcDbEntity
8
0
100
AcDbPolyline
90
6
70
1
43
0.0
10
190.55904978811671
20
67.157436891735642
10
193.57158709713758
20
65.447285155263984
10
196.55889059975851
20
67.201143126488674
10
196.5336567933586
20
70.665152834184966
10
193.5211194843377
20
72.375304570656596
10
190.53381598171677
20
70.621446599431891
0
LWPOLYLINE
5
337
100
AcDbEntity
8
0
100
AcDbPolyline
90
6
70
1
43
0.0
10
189.97496951413956
20
78.410602925094182
10
186.98766601151863
20
76.656744953869449
10
187.01289981791859
20
73.192735246173129
10
190.02543712693949
20
71.482583509701527
10
193.01274062956043
20
73.236441480926231
10
192.98750682316046
20
76.700451188622552
0
LWPOLYLINE
5
338
100
AcDbEntity
8
0
100
AcDbPolyline
90
6
70
1
43
0.0
10
189.53345347281908
20
70.718559616787147
10
186.52091616379812
20
72.428711353258848
10
183.53361266117713
20
70.674853382034044
10
183.55884646757715
20
67.210843674337724
10
186.57138377659808
20
65.500691937866094
10
189.55868727921904
20
67.254549909090827
0
LWPOLYLINE
5
339
100
AcDbEntity
8
0
100
AcDbPolyline
90
6
70
1
43
0.0
10
186.01253730902098
20
73.28984826352854
10
185.98730350262088
20
76.753857971224875
10
182.97476619359995
20
78.464009707696334
10
179.9874626909791
20
76.710151736471516
10
180.01269649737918
20
73.246142028775239
10
183.02523380640011
20
71.535990292303751
0
LWPOLYLINE
5
340
100
AcDbEntity
8
0
100
AcDbPolyline
90
6
70
1
43
0.0
10
176.55904978811674
20
67.157436891735642
10
179.57158709713758
20
65.447285155263984
10
182.55889059975854
20
67.201143126488674
10
182.5336567933586
20
70.665152834184966
10
179.5211194843377
20
72.375304570656596
10
176.53381598171677
20
70.621446599431891
0
LWPOLYLINE
5
341
100
AcDbEntity
8
0
100
AcDbPolyline
90
6
70
1
43
0.0
10
175.97496951413959
20
78.410602925094182
10
172.98766601151866
20
76.656744953869449
10
173.01289981791859
20
73.192735246173129
10
176.02543712693949
20
71.482583509701527
10
179.01274062956045
20
73.236441480926231
10
178.98750682316049
20
76.700451188622552
0
LWPOLYLINE
5
342
100
AcDbEntity
8
0
100
AcDbPolyline
90
6
70
1
43
0.0
10
175.53345347281908
20
70.718559616787147
10
172.52091616379815
20
72.428711353258848
10
169.53361266117713
20
70.674853382034044
10
169.55884646757715
20
67.210843674337724
10
172.57138377659811
20
65.500691937866094
10
175.55868727921904
20
67.254549909090827
0
LWPOLYLINE
5
343
100
AcDbEntity
8
0
100
AcDbPolyline
90
6
70
1
43
0.0
10
172.01253730902098
20
73.28984826352854
10
171.98730350262088
20
76.753857971224875
10
168.97476619359995
20
78.464009707696334
10
165.98746269097913
20
76.710151736471516
10
166.01269649737918
20
73.246142028775239
10
169.02523380640014
20
71.535990292303751
0
LWPOLYLINE
5
344
100
AcDbEntity
8
0
100
AcDbPolyline
90
6
70
1
43
0.0
10
162.55904978811674
20
67.157436891735642
10
165.57158709713761
20
65.447285155263984
10
168.55889059975854
20
67.201143126488674
10
168.53365679335863
20
70.665152834184966
10
165.52111948433773
20
72.375304570656596
10
162.53381598171677
20
70.621446599431891
0
LWPOLYLINE
5
345
100
AcDbEntity
8
0
100
AcDbPolyline
90
6
70
1
43
0.0
10
161.97496951413962
20
78.410602925094182
10
158.98766601151866
20
76.656744953869449
10
159.01289981791859
20
73.192735246173129
10
162.02543712693952
20
71.482583509701527
10
165.01274062956045
20
73.236441480926231
10
164.98750682316052
20
76.700451188622552
0
LWPOLYLINE
5
346
100
AcDbEntity
8
0
100
AcDbPolyline
90
6
70
1
43
0.0
10
161.53345347281908
20
70.718559616787147
10
158.52091616379815
20
72.428711353258848
10
155.53361266117713
20
70.674853382034044
10
155.55884646757715
20
67.210843674337724
10
158.57138377659811
20
65.500691937866094
10
161.55868727921901
20
67.254549909090827
0
LWPOLYLINE
5
347
100
AcDbEntity
8
0
100
AcDbPolyline
90
6
70
1
43
0.0
10
158.01253730902098
20
73.28984826352854
10
157.98730350262088
20
76.753857971224875
10
154.97476619359995
20
78.464009707696334
10
151.98746269097913
20
76.710151736471516
10
152.01269649737918
20
73.246142028775239
10
155.02523380640011
20
71.535990292303751
0
LWPOLYLINE
5
348
100
AcDbEntity
8
0
100
AcDbPolyline
90
6
70
1
43
0.0
10
148.55904978811674
20
67.157436891735642
10
151.57158709713761
20
65.447285155263984
10
154.55889059975854
20
67.201143126488674
10
154.53365679335863
20
70.665152834184966
10
151.52111948433773
20
72.375304570656596
10
148.53381598171677
20
70.621446599431891
0
LWPOLYLINE
5
349
100
AcDbEntity
8
0
100
AcDbPolyline
90
6
70
1
43
0.0
10
217.53345347281908
20
58.718559616787147
10
214.52091616379815
20
60.428711353258848
10
211.53361266117713
20
58.674853382034044
10
211.55884646757715
20
55.210843674337717
10
214.57138377659811
20
53.500691937866087
10
217.55868727921904
20
55.254549909090819
0
LWPOLYLINE
5
350
100
AcDbEntity
8
0
100
AcDbPolyline
90
6
70
1
43
0.0
10
204.55904978811674
20
55.157436891735642
10
207.57158709713761
20
53.447285155263977
10
210.55889059975854
20
55.201143126488674
10
210.5336567933586
20
58.665152834184966
10
207.5211194843377
20
60.375304570656596
10
204.53381598171677
20
58.621446599431899
0
LWPOLYLINE
5
351
100
AcDbEntity
8
0
100
AcDbPolyline
90
4
70
1
43
0.0
10
204.54055626940959
20
93.69616320657029
10
204.55904978811674
20
91.157436891735642
10
207.57158709713761
20
89.447285155263984
10
208.82972271726965
20
90.185941667504622
42
0.037000162112770678
0
CIRCLE
5
352
100
AcDbEntity
8
0
100
AcDbCircle
10
22.500000312924385
20
78.500001192092896
30
0
40
1.4999999999999991
210
0
220
0
230
1
0
CIRCLE
5
353
100
AcDbEntity
8
0
100
AcDbCircle
10
97.500001475214958
20
78.500001192092896
30
0
40
1.5000000000000036
210
0
220
0
230
1
0
LWPOLYLINE
5
354
100
AcDbEntity
8
0
100
AcDbPolyline
90
4
70
1
43
0.0
10
95.600000000000009
20
50.500000000000007
10
95.600000000000009
20
75.5
10
24.399999999999995
20
75.5
10
24.399999999999995
20
50.5
0
CIRCLE
5
355
100
AcDbEntity
8
0
100
AcDbCircle
10
22.500000312924385
20
47.500000685453415
30
0
40
1.4999999999999991
210
0
220
0
230
1
0
CIRCLE
5
356
100
AcDbEntity
8
0
100
AcDbCircle
10
97.500001475214958
20
47.500000685453415
30
0
40
1.5000000000000036
210
0
220
0
230
1
0
LWPOLYLINE
5
357
100
AcDbEntity
8
0
100
AcDbPolyline
90
52
70
1
43
0.0
10
3.0000000000000071
20
53.8125
10
3.0000000000000071
20
72.187499999999986
10
0
20
72.187499999999986
10
0
20
90.5625
10
3.0000000000000071
20
90.5625
10
3.0000000000000071
20
108.9375
10
0
20
108.9375
10
0
20
123
10
14.0625
20
123
10
14.0625
20
120
10
32.4375
20
120
10
32.4375
20
123
10
50.8125
20
123
10
50.8125
20
120
10
69.1875
20
120
10
69.1875
20
123
10
87.5625
20
123
10
87.5625
20
120
10
105.9375
20
120
10
105.9375
20
123
10
120
20
123
10
120
20
108.9375
10
117
20
108.9375
10
117
20
90.5625
10
120
20
90.5625
10
120
20
72.187499999999986
10
117
20
72.187499999999986
10
117
20
53.8125
10
120
20
53.8125
10
120
20
35.4375
10
117
20
35.4375
10
117
20
17.0625
10
120
20
17.0625
10
120
20
2.9999999999999982
10
105.9375
20
2.9999999999999982
10
105.9375
20
6.0000000000000009
10
87.5625
20
6.0000000000000009
10
87.5625
20
2.9999999999999982
10
69.1875
20
2.9999999999999982
10
69.1875
20
6.0000000000000009
10
50.8125
20
6.0000000000000009
10
50.8125
20
2.9999999999999982
10
32.4375
20
2.9999999999999982
10
32.4375
20
6.0000000000000009
10
14.0625
20
6.0000000000000009
10
14.0625
20
2.9999999999999982
10
0
20
2.9999999999999982
10
0
20
17.0625
10
3.0000000000000071
20
17.0625
10
3.0000000000000071
20
35.4375
10
0
20
35.4375
10
0
20
53.8125
0
ENDSEC
0
SECTION
2
OBJECTS
0
DICTIONARY
5
C
100
AcDbDictionary
3
ACAD_GROUP
350
D
3
ACAD_MLINESTYLE
350
17
0
DICTIONARY
5
D
100
AcDbDictionary
0
DICTIONARY
5
1A
330
C
100
AcDbDictionary
0
DICTIONARY
5
17
100
AcDbDictionary
0
ENDSEC
0
EOF
